<svg width="195" height="98" viewBox="0 0 195 98" fill="none" xmlns="http://www.w3.org/2000/svg">
<path fill-rule="evenodd" clip-rule="evenodd" d="M97.5 -8.94326e-07C43.6522 -5.60185e-06 4.73166e-06 43.8761 0 98L195 98C195 43.8761 151.348 3.81319e-06 97.5 -8.94326e-07Z" fill="#2B8BFC"/>
<path d="M21.8813 70.312C22.3168 68.5718 22.8718 66.9943 23.5463 65.5795C24.2144 64.1539 24.9373 62.8747 25.7151 61.742L30.0568 62.8287C29.6583 63.2507 29.2521 63.7395 28.8385 64.2951C28.427 64.842 28.0316 65.4525 27.6523 66.1265C27.2731 66.8006 26.9197 67.536 26.5921 68.3328C26.2645 69.1296 25.9865 69.9846 25.7579 70.8977C25.4734 72.0348 25.3072 73.046 25.2596 73.9312C25.212 74.8164 25.2506 75.595 25.3753 76.267C25.5001 76.939 25.6991 77.5152 25.9725 77.9955C26.2373 78.4737 26.5485 78.8766 26.9059 79.204C27.2633 79.5315 27.6466 79.7922 28.0558 79.9861C28.465 80.1801 28.872 80.3277 29.2769 80.4291C29.6301 80.5175 30.022 80.5789 30.4528 80.6135C30.8857 80.6395 31.3337 80.6051 31.7968 80.5105C32.262 80.4072 32.7294 80.2221 33.199 79.9552C33.6686 79.6882 34.1221 79.3028 34.5594 78.799C34.9989 78.2865 35.4115 77.6437 35.7972 76.8706C36.1744 76.0953 36.5041 75.1434 36.7866 74.0149C36.9289 73.4464 37.0356 72.9467 37.1068 72.516C37.178 72.0853 37.2265 71.6901 37.2525 71.3304C37.2806 70.9621 37.2893 70.6164 37.2786 70.2934C37.2701 69.9617 37.2594 69.6203 37.2466 69.2692L35.1016 68.7324L33.7562 74.1078L29.8667 73.1344L32.4119 62.965L41.483 65.2353C41.5388 65.9266 41.558 66.6912 41.5406 67.529C41.5166 68.3561 41.4593 69.2068 41.3687 70.0812C41.2887 70.9492 41.1776 71.8139 41.0352 72.6753C40.8929 73.5368 40.7279 74.3423 40.5403 75.0917C40.2492 76.2547 39.8925 77.3509 39.4701 78.3803C39.0477 79.4096 38.5607 80.3496 38.0091 81.2002C37.4511 82.0401 36.8263 82.7808 36.1348 83.4224C35.4454 84.0555 34.6882 84.5571 33.8632 84.9273C33.0404 85.2889 32.1476 85.5095 31.1848 85.5889C30.2156 85.6576 29.1754 85.5528 28.0641 85.2747C26.9615 84.9987 26.001 84.5936 25.1827 84.0592C24.3644 83.5249 23.6797 82.8958 23.1285 82.172C22.5795 81.4396 22.1522 80.6232 21.8466 79.7228C21.5431 78.8139 21.3484 77.8543 21.2626 76.8442C21.1702 75.8233 21.1791 74.7636 21.2892 73.6652C21.4015 72.5582 21.5989 71.4405 21.8813 70.312Z" fill="white"/>
<path d="M55.8066 46.5091C55.2997 48.0067 54.6794 49.4186 53.9456 50.745C53.2243 52.0697 52.393 53.3558 51.4517 54.6035C50.2483 56.1985 49.0058 57.4914 47.7243 58.4824C46.4409 59.4609 45.1523 60.1294 43.8583 60.4881C42.5643 60.8467 41.2774 60.8936 39.9977 60.6289C38.7179 60.3642 37.4825 59.7825 36.2916 58.884C35.1857 58.0497 34.3298 57.0535 33.7239 55.8956C33.1163 54.7252 32.7754 53.4668 32.7011 52.1203C32.625 50.7615 32.8333 49.3501 33.3259 47.8863C33.8114 46.4171 34.597 44.9629 35.6827 43.5239C36.6828 42.1983 37.7782 41.1224 38.9687 40.2964C40.1575 39.458 41.3996 38.91 42.6951 38.6527C43.9959 38.3882 45.3234 38.4275 46.6776 38.7706C48.0371 39.1066 49.3867 39.78 50.7265 40.7908L51.7048 41.5289L40.8423 55.9266C41.3993 56.1466 41.9789 56.2557 42.581 56.2539C43.1884 56.2449 43.8167 56.0904 44.4658 55.7904C45.1149 55.4903 45.7893 55.0313 46.4891 54.4135C47.1942 53.7885 47.9318 52.9657 48.702 51.9449C49.2475 51.2218 49.7398 50.4808 50.1789 49.7219C50.6109 48.9577 50.9833 48.2208 51.2961 47.5113C51.6019 46.7964 51.848 46.1311 52.0344 45.5153C52.2262 44.8925 52.3458 44.3653 52.3933 43.9339L55.8066 46.5091ZM45.8522 43.2705C45.4639 43.0332 45.0088 42.8623 44.487 42.7578C43.9634 42.6408 43.3985 42.6597 42.7925 42.8142C42.1864 42.9688 41.5461 43.2866 40.8716 43.7678C40.19 44.2436 39.4936 44.9529 38.7822 45.8958C38.1137 46.7819 37.6459 47.6304 37.379 48.4413C37.1121 49.2522 36.9758 50.0004 36.9703 50.6859C36.9702 51.3644 37.067 51.9659 37.2609 52.4903C37.4548 53.0148 37.6845 53.4329 37.95 53.7444L45.8522 43.2705Z" fill="white"/>
<path d="M74.762 36.3195L69.7198 27.3878C69.3836 26.7924 69.03 26.2833 68.6588 25.8606C68.2832 25.4302 67.8602 25.1234 67.3897 24.9403C66.9226 24.7451 66.3892 24.6944 65.7895 24.7882C65.1932 24.8699 64.5084 25.129 63.7351 25.5656C63.1474 25.8974 62.5746 26.3278 62.0167 26.8569C61.4622 27.3739 60.942 27.9429 60.4564 28.5637C59.9707 29.1846 59.5361 29.8328 59.1525 30.5082C58.7767 31.1792 58.4715 31.8308 58.2369 32.4629L63.8815 42.4618L59.5781 44.8912L50.5808 28.9534L54.8842 26.5239L56.1153 28.7047C56.482 28.0898 56.8857 27.4591 57.3263 26.8126C57.7626 26.1584 58.255 25.5133 58.8036 24.8773C59.3521 24.2413 59.9694 23.6277 60.6554 23.0365C61.3414 22.4453 62.1136 21.9074 62.9719 21.4228C64.0468 20.816 65.0799 20.4062 66.0713 20.1932C67.066 19.9682 67.9925 19.9296 68.8509 20.0772C69.7049 20.2172 70.4786 20.5401 71.1721 21.046C71.869 21.5398 72.4532 22.2042 72.9246 23.0394L79.0538 33.8966L74.762 36.3195Z" fill="white"/>
<path d="M102.334 30.7269C100.893 31.3765 99.4367 31.8847 97.966 32.2516C96.505 32.6265 94.9972 32.8945 93.4426 33.0559C91.4553 33.2621 89.6623 33.2339 88.0637 32.9713C86.4731 32.6989 85.1056 32.2114 83.9613 31.5088C82.8171 30.8062 81.9057 29.8964 81.2274 28.7794C80.549 27.6624 80.1328 26.3619 79.9788 24.878C79.8358 23.5001 79.9815 22.1949 80.4161 20.9624C80.8586 19.7201 81.5472 18.613 82.4819 17.6411C83.4246 16.6594 84.5995 15.85 86.0064 15.2129C87.4125 14.567 89.0121 14.1511 90.8051 13.965C92.4569 13.7936 93.9906 13.862 95.4065 14.1704C96.8302 14.4691 98.0777 15.0047 99.1489 15.7774C100.229 16.5492 101.105 17.5475 101.776 18.7723C102.457 19.9962 102.884 21.4429 103.057 23.1123L103.184 24.3312L85.2443 26.193C85.4629 26.7506 85.778 27.2491 86.1897 27.6885C86.6101 28.127 87.1514 28.4815 87.8133 28.7521C88.4753 29.0226 89.2708 29.2034 90.1998 29.2945C91.1377 29.3847 92.2425 29.3637 93.5145 29.2317C94.4154 29.1382 95.2932 28.9936 96.1478 28.7977C97.0015 28.5931 97.7946 28.3635 98.527 28.1089C99.2586 27.8455 99.9132 27.5722 100.491 27.289C101.077 27.005 101.545 26.7333 101.893 26.474L102.334 30.7269ZM97.9207 21.2348C97.8298 20.7889 97.6448 20.3394 97.3656 19.8863C97.0944 19.4234 96.6957 19.0229 96.1696 18.6846C95.6434 18.3464 94.9745 18.0944 94.1627 17.9287C93.35 17.7541 92.3563 17.7278 91.1815 17.8497C90.0774 17.9643 89.1377 18.2002 88.3623 18.5575C87.587 18.9147 86.9465 19.3249 86.4411 19.788C85.9444 20.2502 85.5703 20.731 85.3185 21.2303C85.0668 21.7296 84.9174 22.1826 84.8703 22.5892L97.9207 21.2348Z" fill="white"/>
<path d="M126.03 23.334C125.912 23.258 125.738 23.1536 125.506 23.0209C125.285 22.8818 125.019 22.7359 124.71 22.5834C124.403 22.4223 124.058 22.2652 123.676 22.1123C123.302 21.9615 122.909 21.8333 122.496 21.7275C121.635 21.5072 120.803 21.4088 120 21.4322C119.207 21.4492 118.443 21.5514 117.708 21.7389C116.974 21.9178 116.271 22.1593 115.597 22.4634C114.934 22.7612 114.311 23.0829 113.727 23.4284L110.995 34.1L106.207 32.874L110.748 15.144L115.535 16.37L114.798 19.2476C115.485 18.965 116.18 18.703 116.883 18.4615C117.597 18.2136 118.321 18.0185 119.054 17.8762C119.796 17.7362 120.556 17.6694 121.333 17.676C122.113 17.674 122.911 17.7777 123.728 17.987C124.038 18.0663 124.348 18.1639 124.657 18.2798C124.978 18.3893 125.283 18.5041 125.573 18.6243C125.871 18.7466 126.148 18.8677 126.401 18.9876C126.654 19.1075 126.874 19.2186 127.058 19.3209L126.03 23.334Z" fill="white"/>
<path d="M136.488 46.7737L137.506 45.2912C136.79 45.2198 136.057 45.0879 135.306 44.8954C134.562 44.7078 133.815 44.4698 133.065 44.1812C132.316 43.8926 131.572 43.5487 130.833 43.1494C130.097 42.7625 129.381 42.3303 128.686 41.8528C127.873 41.2948 127.139 40.6776 126.483 40.0012C125.835 39.3297 125.336 38.6209 124.986 37.8747C124.637 37.1285 124.474 36.3541 124.497 35.5514C124.528 34.7538 124.819 33.9523 125.372 33.147C126.071 32.1294 126.93 31.4749 127.949 31.1834C128.972 30.8846 130.204 30.9112 131.642 31.2634C133.081 31.6156 134.752 32.2727 136.655 33.2347C138.565 34.2018 140.759 35.4387 143.236 36.9455L143.455 36.6271C143.626 36.3782 143.728 36.0877 143.762 35.7556C143.801 35.4163 143.708 35.0344 143.482 34.6101C143.269 34.1836 142.899 33.7031 142.372 33.1688C141.852 32.6395 141.123 32.0532 140.186 31.4098C139.447 30.9021 138.687 30.4397 137.907 30.0227C137.139 29.6033 136.373 29.2283 135.609 28.8976C134.853 28.572 134.114 28.2909 133.393 28.0545C132.672 27.818 132.001 27.6266 131.38 27.4801L133.868 23.8564C134.471 24.0764 135.134 24.3429 135.856 24.6557C136.578 24.9686 137.314 25.3173 138.062 25.7019C138.816 26.0792 139.561 26.4835 140.299 26.9148C141.042 27.3388 141.736 27.7719 142.38 28.2143C143.647 29.0838 144.741 29.9917 145.664 30.9378C146.593 31.8767 147.29 32.8296 147.757 33.7966C148.232 34.7687 148.454 35.7397 148.423 36.7098C148.4 37.6849 148.069 38.6373 147.431 39.567L140.562 49.5709L136.488 46.7737ZM141.216 39.8885C139.609 38.8714 138.219 38.0408 137.045 37.3966C135.879 36.7575 134.883 36.2624 134.058 35.9112C133.233 35.56 132.553 35.3253 132.021 35.2072C131.495 35.0941 131.069 35.055 130.744 35.09C130.418 35.1249 130.169 35.2127 129.998 35.3532C129.833 35.4987 129.7 35.6447 129.6 35.7911C129.479 35.9668 129.409 36.1715 129.388 36.4052C129.373 36.6316 129.44 36.8875 129.588 37.1728C129.745 37.4631 129.995 37.7806 130.34 38.1252C130.685 38.4699 131.158 38.8483 131.758 39.2604C132.424 39.7178 133.111 40.1139 133.818 40.4487C134.526 40.7835 135.225 41.0591 135.917 41.2755C136.614 41.4845 137.294 41.6391 137.957 41.7394C138.633 41.8373 139.265 41.8828 139.851 41.8761L141.216 39.8885Z" fill="white"/>
<path d="M159.937 52.8425L148.19 61.0309L145.364 56.9768L157.111 48.7884L152.67 42.4177L155.938 40.1401L167.653 56.9466L164.385 59.2242L159.937 52.8425Z" fill="white"/>
<path d="M158.652 88.4805C157.806 87.1453 157.097 85.7757 156.526 84.3716C155.948 82.9783 155.47 81.5235 155.09 80.0074C154.605 78.0691 154.379 76.2902 154.413 74.6705C154.458 73.0573 154.748 71.6347 155.281 70.4026C155.815 69.1705 156.587 68.1397 157.597 67.3103C158.607 66.4808 159.835 65.885 161.283 65.5228C162.627 65.1864 163.939 65.1462 165.221 65.4022C166.513 65.6646 167.706 66.1898 168.801 66.9778C169.906 67.7723 170.873 68.8209 171.703 70.1237C172.541 71.4244 173.179 72.9491 173.616 74.6978C174.02 76.3087 174.169 77.8368 174.064 79.282C173.969 80.7337 173.615 82.0443 173.002 83.214C172.39 84.3922 171.526 85.4004 170.408 86.2385C169.293 87.0853 167.921 87.7124 166.293 88.1199L165.104 88.4174L160.725 70.9213C160.204 71.2165 159.755 71.5989 159.378 72.0686C159.004 72.5468 158.729 73.1327 158.555 73.8262C158.381 74.5198 158.314 75.3329 158.355 76.2654C158.399 77.2066 158.576 78.2975 158.886 79.5379C159.106 80.4166 159.373 81.2651 159.688 82.0835C160.011 82.8997 160.351 83.6523 160.706 84.3415C161.07 85.0284 161.433 85.6378 161.795 86.1697C162.159 86.7102 162.494 87.1344 162.8 87.4423L158.652 88.4805ZM167.425 82.7696C167.854 82.6166 168.273 82.3699 168.682 82.0295C169.102 81.6955 169.442 81.2442 169.703 80.6755C169.963 80.1069 170.118 79.409 170.167 78.582C170.225 77.7528 170.111 76.7653 169.824 75.6195C169.554 74.5427 169.188 73.6458 168.725 72.9287C168.262 72.2116 167.765 71.6356 167.235 71.2007C166.707 70.7744 166.178 70.4719 165.649 70.2933C165.119 70.1147 164.649 70.0308 164.24 70.0417L167.425 82.7696Z" fill="white"/>
</svg>
