<svg width="360" height="180" viewBox="0 0 360 180" fill="none" xmlns="http://www.w3.org/2000/svg">
<path fill-rule="evenodd" clip-rule="evenodd" d="M180 4.52991e-05C80.5888 3.66082e-05 8.69081e-06 80.5888 0 180L360 180C360 80.5888 279.411 5.39899e-05 180 4.52991e-05Z" fill="#2B8BFC"/>
<path d="M40.4433 130.287C41.2482 127.071 42.274 124.155 43.5206 121.54C44.7553 118.905 46.0914 116.541 47.529 114.448L55.5535 116.456C54.8168 117.236 54.0662 118.139 53.3017 119.166C52.5411 120.177 51.8104 121.306 51.1095 122.551C50.4085 123.797 49.7553 125.156 49.1499 126.629C48.5445 128.102 48.0305 129.682 47.6082 131.37C47.0822 133.471 46.7752 135.34 46.6872 136.976C46.5992 138.612 46.6704 140.051 46.901 141.293C47.1315 142.535 47.4995 143.6 48.0048 144.488C48.4942 145.372 49.0692 146.116 49.7298 146.721C50.3905 147.327 51.0989 147.809 51.8551 148.167C52.6114 148.525 53.3636 148.798 54.1119 148.986C54.7647 149.149 55.4892 149.263 56.2853 149.327C57.0854 149.375 57.9134 149.311 58.7693 149.136C59.6291 148.945 60.493 148.603 61.3609 148.11C62.2289 147.616 63.067 146.904 63.8753 145.973C64.6876 145.026 65.4502 143.838 66.1631 142.409C66.8601 140.976 67.4696 139.217 67.9916 137.131C68.2546 136.08 68.4519 135.157 68.5835 134.36C68.715 133.564 68.8048 132.834 68.8527 132.169C68.9046 131.489 68.9207 130.85 68.901 130.253C68.8852 129.639 68.8655 129.009 68.8418 128.36L64.8773 127.367L62.3908 137.303L55.2022 135.503L59.9062 116.708L76.6717 120.904C76.7748 122.182 76.8103 123.595 76.7781 125.143C76.7339 126.672 76.628 128.244 76.4604 129.86C76.3127 131.465 76.1072 133.063 75.8441 134.655C75.581 136.247 75.2761 137.736 74.9294 139.121C74.3914 141.27 73.7321 143.296 72.9514 145.199C72.1707 147.102 71.2706 148.839 70.2511 150.411C69.2198 151.963 68.065 153.332 66.7869 154.518C65.5128 155.688 64.1133 156.615 62.5886 157.299C61.0678 157.968 59.4177 158.375 57.6383 158.522C55.847 158.649 53.9244 158.456 51.8705 157.942C49.8325 157.431 48.0573 156.683 46.545 155.695C45.0326 154.707 43.767 153.545 42.7483 152.207C41.7336 150.853 40.9438 149.344 40.379 147.68C39.8182 146 39.4584 144.227 39.2996 142.36C39.129 140.473 39.1454 138.515 39.3489 136.484C39.5565 134.438 39.9212 132.373 40.4433 130.287Z" fill="white"/>
<path d="M103.143 86.2946C102.206 89.0624 101.059 91.6721 99.7031 94.1235C98.37 96.5718 96.8335 98.9489 95.0938 101.255C92.8696 104.203 90.5732 106.593 88.2046 108.424C85.8327 110.232 83.451 111.468 81.0594 112.131C78.6678 112.794 76.2894 112.881 73.924 112.391C71.5587 111.902 69.2755 110.827 67.0743 109.166C65.0304 107.624 63.4486 105.783 62.3288 103.643C61.2057 101.48 60.5756 99.1541 60.4382 96.6655C60.2977 94.1539 60.6826 91.5454 61.593 88.8399C62.4903 86.1245 63.9423 83.437 65.949 80.7773C67.7975 78.3272 69.8219 76.3388 72.0223 74.8121C74.2195 73.2625 76.5152 72.2498 78.9095 71.7741C81.3138 71.2853 83.7673 71.3579 86.27 71.992C88.7827 72.613 91.2772 73.8577 93.7535 75.7259L95.5615 77.0901L75.4851 103.7C76.5146 104.107 77.5858 104.309 78.6986 104.305C79.8213 104.289 80.9825 104.003 82.1822 103.449C83.3819 102.894 84.6284 102.046 85.9217 100.904C87.2249 99.7487 88.5882 98.2279 90.0116 96.3412C91.0199 95.0048 91.9298 93.6353 92.7413 92.2326C93.5397 90.8201 94.228 89.4582 94.8062 88.1468C95.3713 86.8256 95.8261 85.5959 96.1708 84.4579C96.5253 83.3067 96.7463 82.3324 96.834 81.535L103.143 86.2946ZM84.7446 80.309C84.0269 79.8703 83.1859 79.5544 82.2213 79.3613C81.2536 79.1452 80.2097 79.1799 79.0895 79.4656C77.9693 79.7513 76.7859 80.3388 75.5393 81.2281C74.2796 82.1075 72.9924 83.4185 71.6777 85.161C70.442 86.7988 69.5775 88.367 69.0842 89.8657C68.5908 91.3645 68.339 92.7473 68.3288 94.0144C68.3285 95.2683 68.5075 96.38 68.8659 97.3493C69.2242 98.3187 69.6487 99.0913 70.1394 99.6672L84.7446 80.309Z" fill="white"/>
<path d="M138.177 67.4615L128.858 50.9537C128.236 49.8531 127.583 48.9123 126.897 48.131C126.202 47.3355 125.421 46.7685 124.551 46.4301C123.688 46.0693 122.702 45.9756 121.594 46.149C120.491 46.3 119.226 46.7789 117.796 47.5858C116.71 48.199 115.652 48.9945 114.62 49.9724C113.595 50.928 112.634 51.9795 111.737 53.1271C110.839 54.2746 110.036 55.4726 109.327 56.7209C108.632 57.9611 108.068 59.1654 107.635 60.3337L118.067 78.8139L110.113 83.304L93.4841 53.8472L101.438 49.357L103.713 53.3875C104.391 52.251 105.137 51.0854 105.951 49.8906C106.758 48.6814 107.668 47.4892 108.682 46.3137C109.696 45.1383 110.836 44.0042 112.104 42.9115C113.372 41.8188 114.799 40.8246 116.386 39.929C118.373 38.8075 120.282 38.05 122.114 37.6565C123.953 37.2406 125.665 37.1691 127.252 37.442C128.83 37.7007 130.26 38.2975 131.542 39.2325C132.83 40.1451 133.909 41.3732 134.781 42.9168L146.109 62.9835L138.177 67.4615Z" fill="white"/>
<path d="M189.138 57.125C186.474 58.3255 183.782 59.2648 181.064 59.9429C178.364 60.6357 175.577 61.1312 172.704 61.4294C169.031 61.8106 165.717 61.7585 162.762 61.2731C159.823 60.7696 157.295 59.8686 155.18 58.57C153.065 57.2714 151.381 55.5899 150.127 53.5254C148.874 51.4609 148.104 49.0574 147.82 46.3148C147.555 43.7681 147.825 41.3558 148.628 39.0778C149.446 36.7818 150.718 34.7356 152.446 32.9392C154.188 31.1248 156.36 29.6289 158.96 28.4515C161.559 27.2578 164.515 26.4889 167.829 26.145C170.882 25.8282 173.717 25.9547 176.334 26.5247C178.965 27.0766 181.271 28.0667 183.25 29.4948C185.247 30.9212 186.865 32.7663 188.107 35.0301C189.365 37.2922 190.154 39.9659 190.474 43.0513L190.708 45.3042L157.552 48.7452C157.956 49.7758 158.538 50.6972 159.299 51.5093C160.076 52.3197 161.076 52.9749 162.3 53.4749C163.523 53.975 164.993 54.3092 166.71 54.4775C168.444 54.6441 170.486 54.6055 172.837 54.3615C174.502 54.1887 176.124 53.9213 177.704 53.5594C179.282 53.1811 180.747 52.7567 182.101 52.2862C183.453 51.7994 184.663 51.2943 185.731 50.7709C186.815 50.2459 187.679 49.7438 188.322 49.2645L189.138 57.125ZM180.981 39.5814C180.813 38.7572 180.471 37.9264 179.955 37.0889C179.453 36.2334 178.716 35.4931 177.744 34.868C176.772 34.2429 175.535 33.7772 174.035 33.4709C172.533 33.1482 170.696 33.0996 168.525 33.3249C166.484 33.5367 164.747 33.9727 163.314 34.6329C161.881 35.2932 160.698 36.0513 159.763 36.9073C158.846 37.7616 158.154 38.6502 157.689 39.573C157.224 40.4958 156.947 41.333 156.86 42.0846L180.981 39.5814Z" fill="white"/>
<path d="M232.933 43.4617C232.715 43.3211 232.391 43.1282 231.963 42.8829C231.554 42.6258 231.064 42.3563 230.493 42.0744C229.925 41.7766 229.288 41.4863 228.581 41.2036C227.89 40.925 227.163 40.688 226.4 40.4925C224.81 40.0854 223.272 39.9034 221.787 39.9467C220.322 39.9781 218.91 40.1671 217.55 40.5136C216.195 40.8442 214.895 41.2906 213.65 41.8527C212.424 42.403 211.272 42.9975 210.194 43.6362L205.143 63.3597L196.295 61.0938L204.687 28.3247L213.535 30.5906L212.173 35.909C213.442 35.3868 214.726 34.9025 216.026 34.4562C217.347 33.998 218.684 33.6374 220.039 33.3745C221.41 33.1156 222.814 32.9923 224.251 33.0045C225.692 33.0008 227.168 33.1923 228.678 33.5791C229.251 33.7257 229.823 33.9061 230.395 34.1204C230.987 34.3228 231.551 34.535 232.087 34.757C232.639 34.9831 233.149 35.2069 233.618 35.4285C234.086 35.6502 234.491 35.8555 234.832 36.0445L232.933 43.4617Z" fill="white"/>
<path d="M252.262 86.7832L254.143 84.0433C252.82 83.9114 251.464 83.6675 250.076 83.3116C248.702 82.965 247.321 82.5251 245.936 81.9917C244.55 81.4583 243.175 80.8227 241.81 80.0847C240.449 79.3696 239.126 78.5708 237.841 77.6882C236.339 76.657 234.982 75.5163 233.77 74.266C232.571 73.025 231.649 71.7149 231.003 70.3358C230.358 68.9567 230.056 67.5254 230.099 66.0418C230.156 64.5676 230.695 63.0863 231.717 61.598C233.008 59.7172 234.595 58.5075 236.478 57.9687C238.371 57.4164 240.646 57.4657 243.305 58.1167C245.964 58.7676 249.052 59.9821 252.57 61.7601C256.101 63.5474 260.155 65.8336 264.733 68.6185L265.138 68.03C265.453 67.5699 265.643 67.033 265.706 66.4193C265.778 65.7921 265.606 65.0863 265.189 64.3022C264.794 63.5137 264.11 62.6258 263.135 61.6382C262.174 60.66 260.828 59.5763 259.096 58.3872C257.73 57.4489 256.325 56.5943 254.884 55.8234C253.465 55.0483 252.049 54.3552 250.637 53.7441C249.239 53.1423 247.873 52.6228 246.541 52.1858C245.209 51.7487 243.968 51.3949 242.82 51.1243L247.419 44.4267C248.533 44.8334 249.758 45.3259 251.093 45.9041C252.428 46.4823 253.787 47.1269 255.17 47.8377C256.563 48.5351 257.941 49.2823 259.305 50.0795C260.679 50.863 261.961 51.6636 263.151 52.4811C265.492 54.0883 267.515 55.7662 269.221 57.5149C270.937 59.2501 272.226 61.0113 273.089 62.7986C273.966 64.5952 274.376 66.3899 274.32 68.1828C274.277 69.985 273.666 71.7453 272.486 73.4636L259.791 91.953L252.262 86.7832ZM260.999 74.0578C258.029 72.178 255.46 70.6428 253.291 69.4523C251.135 68.271 249.295 67.3559 247.77 66.7068C246.244 66.0577 244.989 65.624 244.004 65.4056C243.033 65.1966 242.246 65.1244 241.645 65.189C241.043 65.2536 240.583 65.4158 240.265 65.6755C239.961 65.9445 239.716 66.2143 239.53 66.4849C239.308 66.8096 239.177 67.188 239.139 67.6199C239.111 68.0384 239.234 68.5112 239.509 69.0385C239.798 69.5751 240.261 70.1619 240.899 70.7989C241.536 71.4358 242.41 72.1352 243.52 72.897C244.751 73.7423 246.02 74.4744 247.327 75.0932C248.635 75.712 249.927 76.2214 251.206 76.6212C252.493 77.0076 253.75 77.2934 254.977 77.4786C256.226 77.6596 257.393 77.7438 258.477 77.7313L260.999 74.0578Z" fill="white"/>
<path d="M295.601 97.9993L273.89 113.133L268.666 105.64L290.378 90.5064L282.17 78.7318L288.209 74.5225L309.861 105.585L303.822 109.794L295.601 97.9993Z" fill="white"/>
<path d="M293.227 163.867C291.662 161.399 290.351 158.868 289.296 156.273C288.228 153.698 287.344 151.009 286.642 148.207C285.746 144.625 285.329 141.337 285.392 138.343C285.475 135.362 286.01 132.732 286.996 130.455C287.983 128.178 289.409 126.273 291.276 124.74C293.142 123.207 295.413 122.105 298.088 121.436C300.572 120.814 302.998 120.74 305.366 121.213C307.755 121.698 309.961 122.669 311.983 124.125C314.026 125.594 315.813 127.532 317.347 129.94C318.896 132.344 320.075 135.162 320.884 138.394C321.629 141.371 321.904 144.195 321.71 146.866C321.535 149.549 320.881 151.972 319.747 154.133C318.617 156.311 317.02 158.175 314.954 159.724C312.892 161.288 310.357 162.448 307.348 163.201L305.151 163.751L297.057 131.414C296.094 131.959 295.265 132.666 294.568 133.534C293.876 134.418 293.368 135.501 293.046 136.783C292.724 138.065 292.601 139.567 292.677 141.291C292.757 143.03 293.084 145.047 293.658 147.339C294.065 148.963 294.559 150.532 295.14 152.044C295.738 153.553 296.365 154.944 297.022 156.217C297.695 157.487 298.366 158.613 299.035 159.596C299.708 160.595 300.327 161.379 300.893 161.948L293.227 163.867ZM309.441 153.312C310.233 153.029 311.007 152.573 311.763 151.944C312.539 151.327 313.168 150.493 313.65 149.442C314.131 148.391 314.417 147.101 314.508 145.572C314.615 144.04 314.404 142.215 313.874 140.097C313.376 138.107 312.699 136.449 311.843 135.124C310.986 133.799 310.069 132.734 309.089 131.93C308.114 131.142 307.136 130.583 306.157 130.253C305.178 129.923 304.31 129.768 303.553 129.788L309.441 153.312Z" fill="white"/>
</svg>
