<svg width="360" height="360" viewBox="0 0 360 360" fill="none" xmlns="http://www.w3.org/2000/svg">
<path d="M360 180C360 279.411 279.411 360 180 360C80.5887 360 0 279.411 0 180C0 80.5887 80.5887 0 180 0C279.411 0 360 80.5887 360 180Z" fill="black"/>
<path d="M267.051 279.508V245.934H211.738V279.508H190V199H211.738V228.297H267.051V199L288.789 199V279.508H267.051Z" fill="white"/>
<path d="M250.205 99.6266V163H228.737V99.6266H195V82L284 82V99.6266L250.205 99.6266Z" fill="#2B8BFC"/>
<path d="M78 163L78 82L164.133 82V99.2729L101.592 99.2729V112.655L160.913 112.655V129.928H101.592L101.592 145.727H165V163H78Z" fill="white"/>
<path d="M119.633 266V292L151.465 247.047L119.633 266Z" fill="#2B8BFC"/>
<path d="M119.633 188L151.465 240.972L119.633 259.925L87.5586 240.972" fill="#2B8BFC"/>
<path d="M119.633 188V226.393L87.5586 240.972M87.5586 247.047L119.633 266V292" fill="white"/>
<path d="M119.633 226.393V259.925L151.465 240.972" fill="#2B8BFC"/>
<path d="M87.5586 240.972L119.633 226.393V259.925" fill="#2B8BFC"/>
</svg>
