<svg width="311" height="292" viewBox="0 0 311 292" fill="none" xmlns="http://www.w3.org/2000/svg">
<path d="M128.473 272.773C128.473 274.453 128.629 275.83 128.941 276.904C129.254 277.959 129.762 278.799 130.465 279.424C131.168 280.049 132.076 280.479 133.189 280.713C134.322 280.947 135.709 281.064 137.35 281.064H157.975V290H135.123C131.959 290 129.264 289.746 127.037 289.238C124.83 288.711 123.023 287.91 121.617 286.836C120.211 285.742 119.186 284.365 118.541 282.705C117.916 281.045 117.604 279.072 117.604 276.787V249.746H128.473V272.773Z" fill="#2B8BFC"/>
<path d="M104.42 288.008C101.119 289.102 97.8184 289.883 94.5176 290.352C91.2363 290.84 87.877 291.084 84.4395 291.084C80.0449 291.084 76.1289 290.615 72.6914 289.678C69.2734 288.721 66.3926 287.344 64.0488 285.547C61.7051 283.75 59.918 281.553 58.6875 278.955C57.457 276.357 56.8418 273.418 56.8418 270.137C56.8418 267.09 57.457 264.268 58.6875 261.67C59.9375 259.053 61.6953 256.787 63.9609 254.873C66.2461 252.939 69 251.436 72.2227 250.361C75.4453 249.268 79.0391 248.721 83.0039 248.721C86.6562 248.721 89.9961 249.219 93.0234 250.215C96.0703 251.191 98.6777 252.646 100.846 254.58C103.033 256.514 104.723 258.896 105.914 261.729C107.125 264.561 107.73 267.822 107.73 271.514V274.209H68.0625C68.4141 275.479 68.9902 276.641 69.791 277.695C70.6113 278.75 71.7148 279.648 73.1016 280.391C74.4883 281.133 76.1875 281.709 78.1992 282.119C80.2305 282.529 82.6523 282.734 85.4648 282.734C87.457 282.734 89.4102 282.617 91.3242 282.383C93.2383 282.129 95.0254 281.807 96.6855 281.416C98.3457 281.006 99.8398 280.557 101.168 280.068C102.516 279.58 103.6 279.092 104.42 278.604V288.008ZM96.9199 266.24C96.8223 265.244 96.5195 264.219 96.0117 263.164C95.5234 262.09 94.7422 261.123 93.668 260.264C92.5938 259.404 91.1875 258.701 89.4492 258.154C87.7109 257.588 85.543 257.305 82.9453 257.305C80.5039 257.305 78.3945 257.607 76.6172 258.213C74.8398 258.818 73.3457 259.57 72.1348 260.469C70.9434 261.367 70.0156 262.334 69.3516 263.369C68.6875 264.404 68.2578 265.361 68.0625 266.24H96.9199Z" fill="#2B8BFC"/>
<path d="M49.6055 269.844C49.6055 272.422 49.3223 274.717 48.7559 276.729C48.1895 278.721 47.3887 280.459 46.3535 281.943C45.3379 283.428 44.1074 284.688 42.6621 285.723C41.2363 286.758 39.6445 287.588 37.8867 288.213C36.1289 288.838 34.2344 289.297 32.2031 289.59C30.1719 289.863 28.0527 290 25.8457 290H0.298828L0.298828 249.746H25.7871C27.9941 249.746 30.1133 249.893 32.1445 250.186C34.1758 250.459 36.0703 250.908 37.8281 251.533C39.6055 252.158 41.2168 252.988 42.6621 254.023C44.1074 255.039 45.3379 256.299 46.3535 257.803C47.3887 259.287 48.1895 261.025 48.7559 263.018C49.3223 265.01 49.6055 267.285 49.6055 269.844ZM38.6484 269.844C38.6484 267.91 38.3945 266.23 37.8867 264.805C37.3984 263.379 36.5977 262.207 35.4844 261.289C34.3906 260.352 32.9551 259.658 31.1777 259.209C29.4004 258.74 27.2324 258.506 24.6738 258.506H11.168L11.168 281.24H24.6738C27.2324 281.24 29.4004 281.016 31.1777 280.566C32.9551 280.098 34.3906 279.395 35.4844 278.457C36.5977 277.5 37.3984 276.309 37.8867 274.883C38.3945 273.457 38.6484 271.777 38.6484 269.844Z" fill="#2B8BFC"/>
<path d="M128.736 207.902C128.736 211.105 128.121 214.016 126.891 216.633C125.68 219.23 124.01 221.457 121.881 223.312C119.752 225.148 117.242 226.574 114.352 227.59C111.461 228.586 108.355 229.084 105.035 229.084C102.809 229.084 100.68 228.859 98.6484 228.41C96.6172 227.961 94.7129 227.307 92.9355 226.447C91.1777 225.588 89.5762 224.543 88.1309 223.312C86.7051 222.062 85.4844 220.656 84.4688 219.094C83.4531 217.531 82.6621 215.812 82.0957 213.938C81.5488 212.062 81.2754 210.051 81.2754 207.902C81.2754 205.773 81.5488 203.771 82.0957 201.896C82.6621 200.002 83.4531 198.273 84.4688 196.711C85.4844 195.148 86.7051 193.752 88.1309 192.521C89.5762 191.271 91.1777 190.217 92.9355 189.357C94.7129 188.498 96.6172 187.844 98.6484 187.395C100.68 186.945 102.809 186.721 105.035 186.721C108.355 186.721 111.461 187.229 114.352 188.244C117.242 189.24 119.752 190.666 121.881 192.521C124.01 194.357 125.68 196.584 126.891 199.201C128.121 201.799 128.736 204.699 128.736 207.902ZM117.867 207.902C117.867 205.871 117.516 204.074 116.812 202.512C116.109 200.949 115.162 199.631 113.971 198.557C112.799 197.482 111.441 196.672 109.898 196.125C108.355 195.578 106.734 195.305 105.035 195.305C103.336 195.305 101.705 195.578 100.143 196.125C98.5801 196.672 97.2031 197.482 96.0117 198.557C94.8398 199.631 93.8926 200.949 93.1699 202.512C92.4668 204.074 92.1152 205.871 92.1152 207.902C92.1152 209.934 92.4668 211.73 93.1699 213.293C93.8926 214.855 94.8398 216.174 96.0117 217.248C97.2031 218.303 98.5801 219.113 100.143 219.68C101.705 220.227 103.336 220.5 105.035 220.5C106.734 220.5 108.355 220.227 109.898 219.68C111.441 219.113 112.799 218.303 113.971 217.248C115.162 216.174 116.109 214.855 116.812 213.293C117.516 211.73 117.867 209.934 117.867 207.902Z" fill="#2B8BFC"/>
<path d="M11.168 187.746V192.17C12.125 191.564 13.1602 190.939 14.2734 190.295C15.4062 189.65 16.627 189.064 17.9355 188.537C19.2637 188.01 20.6797 187.58 22.1836 187.248C23.707 186.896 25.3477 186.721 27.1055 186.721C28.8242 186.721 30.3281 186.906 31.6172 187.277C32.9062 187.629 34.0195 188.098 34.957 188.684C35.9141 189.25 36.7246 189.895 37.3887 190.617C38.0527 191.32 38.6289 192.023 39.1172 192.727C40.5039 191.828 41.8711 191.008 43.2188 190.266C44.5664 189.523 45.9238 188.889 47.291 188.361C48.6582 187.834 50.0547 187.434 51.4805 187.16C52.9062 186.867 54.3906 186.721 55.9336 186.721C58.3945 186.721 60.5918 187.062 62.5254 187.746C64.4785 188.43 66.1289 189.367 67.4766 190.559C68.8242 191.75 69.8496 193.156 70.5527 194.777C71.2754 196.379 71.6367 198.098 71.6367 199.934V228H60.7676L60.7676 201.486C60.7676 200.412 60.6016 199.484 60.2695 198.703C59.9375 197.922 59.4883 197.287 58.9219 196.799C58.375 196.311 57.7207 195.949 56.959 195.715C56.2168 195.48 55.4258 195.363 54.5859 195.363C50.6797 195.363 46.2266 197.121 41.2266 200.637C41.2852 200.969 41.3242 201.359 41.3438 201.809C41.3828 202.258 41.4023 202.707 41.4023 203.156L41.4023 228H30.5332L30.5332 201.252C30.5332 200.178 30.3672 199.27 30.0352 198.527C29.7031 197.766 29.2441 197.15 28.6582 196.682C28.0918 196.213 27.4277 195.881 26.666 195.686C25.9238 195.471 25.1328 195.363 24.293 195.363C23.2773 195.363 22.2031 195.51 21.0703 195.803C19.957 196.096 18.8242 196.506 17.6719 197.033C16.5391 197.561 15.416 198.186 14.3027 198.908C13.209 199.631 12.1641 200.412 11.168 201.252L11.168 228H0.298828L0.298828 187.746H11.168Z" fill="#2B8BFC"/>
<path d="M310.248 207.902C310.248 211.105 309.633 214.016 308.402 216.633C307.191 219.23 305.521 221.457 303.393 223.312C301.264 225.148 298.754 226.574 295.863 227.59C292.973 228.586 289.867 229.084 286.547 229.084C284.32 229.084 282.191 228.859 280.16 228.41C278.129 227.961 276.225 227.307 274.447 226.447C272.689 225.588 271.088 224.543 269.643 223.312C268.217 222.062 266.996 220.656 265.98 219.094C264.965 217.531 264.174 215.812 263.607 213.938C263.061 212.062 262.787 210.051 262.787 207.902C262.787 205.773 263.061 203.771 263.607 201.896C264.174 200.002 264.965 198.273 265.98 196.711C266.996 195.148 268.217 193.752 269.643 192.521C271.088 191.271 272.689 190.217 274.447 189.357C276.225 188.498 278.129 187.844 280.16 187.395C282.191 186.945 284.32 186.721 286.547 186.721C289.867 186.721 292.973 187.229 295.863 188.244C298.754 189.24 301.264 190.666 303.393 192.521C305.521 194.357 307.191 196.584 308.402 199.201C309.633 201.799 310.248 204.699 310.248 207.902ZM299.379 207.902C299.379 205.871 299.027 204.074 298.324 202.512C297.621 200.949 296.674 199.631 295.482 198.557C294.311 197.482 292.953 196.672 291.41 196.125C289.867 195.578 288.246 195.305 286.547 195.305C284.848 195.305 283.217 195.578 281.654 196.125C280.092 196.672 278.715 197.482 277.523 198.557C276.352 199.631 275.404 200.949 274.682 202.512C273.979 204.074 273.627 205.871 273.627 207.902C273.627 209.934 273.979 211.73 274.682 213.293C275.404 214.855 276.352 216.174 277.523 217.248C278.715 218.303 280.092 219.113 281.654 219.68C283.217 220.227 284.848 220.5 286.547 220.5C288.246 220.5 289.867 220.227 291.41 219.68C292.953 219.113 294.311 218.303 295.482 217.248C296.674 216.174 297.621 214.855 298.324 213.293C299.027 211.73 299.379 209.934 299.379 207.902Z" fill="#2B8BFC"/>
<path d="M249.814 207.902C249.814 211.105 249.199 214.016 247.969 216.633C246.758 219.23 245.088 221.457 242.959 223.312C240.83 225.148 238.32 226.574 235.43 227.59C232.539 228.586 229.434 229.084 226.113 229.084C223.887 229.084 221.758 228.859 219.727 228.41C217.695 227.961 215.791 227.307 214.014 226.447C212.256 225.588 210.654 224.543 209.209 223.312C207.783 222.062 206.562 220.656 205.547 219.094C204.531 217.531 203.74 215.812 203.174 213.938C202.627 212.062 202.354 210.051 202.354 207.902C202.354 205.773 202.627 203.771 203.174 201.896C203.74 200.002 204.531 198.273 205.547 196.711C206.562 195.148 207.783 193.752 209.209 192.521C210.654 191.271 212.256 190.217 214.014 189.357C215.791 188.498 217.695 187.844 219.727 187.395C221.758 186.945 223.887 186.721 226.113 186.721C229.434 186.721 232.539 187.229 235.43 188.244C238.32 189.24 240.83 190.666 242.959 192.521C245.088 194.357 246.758 196.584 247.969 199.201C249.199 201.799 249.814 204.699 249.814 207.902ZM238.945 207.902C238.945 205.871 238.594 204.074 237.891 202.512C237.188 200.949 236.24 199.631 235.049 198.557C233.877 197.482 232.52 196.672 230.977 196.125C229.434 195.578 227.812 195.305 226.113 195.305C224.414 195.305 222.783 195.578 221.221 196.125C219.658 196.672 218.281 197.482 217.09 198.557C215.918 199.631 214.971 200.949 214.248 202.512C213.545 204.074 213.193 205.871 213.193 207.902C213.193 209.934 213.545 211.73 214.248 213.293C214.971 214.855 215.918 216.174 217.09 217.248C218.281 218.303 219.658 219.113 221.221 219.68C222.783 220.227 224.414 220.5 226.113 220.5C227.812 220.5 229.434 220.227 230.977 219.68C232.52 219.113 233.877 218.303 235.049 217.248C236.24 216.174 237.188 214.855 237.891 213.293C238.594 211.73 238.945 209.934 238.945 207.902Z" fill="white"/>
<path d="M189.381 207.902C189.381 211.105 188.766 214.016 187.535 216.633C186.324 219.23 184.654 221.457 182.525 223.312C180.396 225.148 177.887 226.574 174.996 227.59C172.105 228.586 169 229.084 165.68 229.084C163.453 229.084 161.324 228.859 159.293 228.41C157.262 227.961 155.357 227.307 153.58 226.447C151.822 225.588 150.221 224.543 148.775 223.312C147.35 222.062 146.129 220.656 145.113 219.094C144.098 217.531 143.307 215.812 142.74 213.938C142.193 212.062 141.92 210.051 141.92 207.902C141.92 205.773 142.193 203.771 142.74 201.896C143.307 200.002 144.098 198.273 145.113 196.711C146.129 195.148 147.35 193.752 148.775 192.521C150.221 191.271 151.822 190.217 153.58 189.357C155.357 188.498 157.262 187.844 159.293 187.395C161.324 186.945 163.453 186.721 165.68 186.721C169 186.721 172.105 187.229 174.996 188.244C177.887 189.24 180.396 190.666 182.525 192.521C184.654 194.357 186.324 196.584 187.535 199.201C188.766 201.799 189.381 204.699 189.381 207.902ZM178.512 207.902C178.512 205.871 178.16 204.074 177.457 202.512C176.754 200.949 175.807 199.631 174.615 198.557C173.443 197.482 172.086 196.672 170.543 196.125C169 195.578 167.379 195.305 165.68 195.305C163.98 195.305 162.35 195.578 160.787 196.125C159.225 196.672 157.848 197.482 156.656 198.557C155.484 199.631 154.537 200.949 153.814 202.512C153.111 204.074 152.76 205.871 152.76 207.902C152.76 209.934 153.111 211.73 153.814 213.293C154.537 214.855 155.484 216.174 156.656 217.248C157.848 218.303 159.225 219.113 160.787 219.68C162.35 220.227 163.98 220.5 165.68 220.5C167.379 220.5 169 220.227 170.543 219.68C172.086 219.113 173.443 218.303 174.615 217.248C175.807 216.174 176.754 214.855 177.457 213.293C178.16 211.73 178.512 209.934 178.512 207.902Z" fill="#2B8BFC"/>
<path d="M128.947 207.902C128.947 211.105 128.332 214.016 127.102 216.633C125.891 219.23 124.221 221.457 122.092 223.312C119.963 225.148 117.453 226.574 114.562 227.59C111.672 228.586 108.566 229.084 105.246 229.084C103.02 229.084 100.891 228.859 98.8594 228.41C96.8281 227.961 94.9238 227.307 93.1465 226.447C91.3887 225.588 89.7871 224.543 88.3418 223.312C86.916 222.062 85.6953 220.656 84.6797 219.094C83.6641 217.531 82.873 215.812 82.3066 213.938C81.7598 212.062 81.4863 210.051 81.4863 207.902C81.4863 205.773 81.7598 203.771 82.3066 201.896C82.873 200.002 83.6641 198.273 84.6797 196.711C85.6953 195.148 86.916 193.752 88.3418 192.521C89.7871 191.271 91.3887 190.217 93.1465 189.357C94.9238 188.498 96.8281 187.844 98.8594 187.395C100.891 186.945 103.02 186.721 105.246 186.721C108.566 186.721 111.672 187.229 114.562 188.244C117.453 189.24 119.963 190.666 122.092 192.521C124.221 194.357 125.891 196.584 127.102 199.201C128.332 201.799 128.947 204.699 128.947 207.902ZM118.078 207.902C118.078 205.871 117.727 204.074 117.023 202.512C116.32 200.949 115.373 199.631 114.182 198.557C113.01 197.482 111.652 196.672 110.109 196.125C108.566 195.578 106.945 195.305 105.246 195.305C103.547 195.305 101.916 195.578 100.354 196.125C98.791 196.672 97.4141 197.482 96.2227 198.557C95.0508 199.631 94.1035 200.949 93.3809 202.512C92.6777 204.074 92.3262 205.871 92.3262 207.902C92.3262 209.934 92.6777 211.73 93.3809 213.293C94.1035 214.855 95.0508 216.174 96.2227 217.248C97.4141 218.303 98.791 219.113 100.354 219.68C101.916 220.227 103.547 220.5 105.246 220.5C106.945 220.5 108.566 220.227 110.109 219.68C111.652 219.113 113.01 218.303 114.182 217.248C115.373 216.174 116.32 214.855 117.023 213.293C117.727 211.73 118.078 209.934 118.078 207.902Z" fill="white"/>
<path d="M128.947 145.902C128.947 149.105 128.332 152.016 127.102 154.633C125.891 157.23 124.221 159.457 122.092 161.312C119.963 163.148 117.453 164.574 114.562 165.59C111.672 166.586 108.566 167.084 105.246 167.084C103.02 167.084 100.891 166.859 98.8594 166.41C96.8281 165.961 94.9238 165.307 93.1465 164.447C91.3887 163.588 89.7871 162.543 88.3418 161.312C86.916 160.062 85.6953 158.656 84.6797 157.094C83.6641 155.531 82.873 153.812 82.3066 151.938C81.7598 150.062 81.4863 148.051 81.4863 145.902C81.4863 143.773 81.7598 141.771 82.3066 139.896C82.873 138.002 83.6641 136.273 84.6797 134.711C85.6953 133.148 86.916 131.752 88.3418 130.521C89.7871 129.271 91.3887 128.217 93.1465 127.357C94.9238 126.498 96.8281 125.844 98.8594 125.395C100.891 124.945 103.02 124.721 105.246 124.721C108.566 124.721 111.672 125.229 114.562 126.244C117.453 127.24 119.963 128.666 122.092 130.521C124.221 132.357 125.891 134.584 127.102 137.201C128.332 139.799 128.947 142.699 128.947 145.902ZM118.078 145.902C118.078 143.871 117.727 142.074 117.023 140.512C116.32 138.949 115.373 137.631 114.182 136.557C113.01 135.482 111.652 134.672 110.109 134.125C108.566 133.578 106.945 133.305 105.246 133.305C103.547 133.305 101.916 133.578 100.354 134.125C98.791 134.672 97.4141 135.482 96.2227 136.557C95.0508 137.631 94.1035 138.949 93.3809 140.512C92.6777 142.074 92.3262 143.871 92.3262 145.902C92.3262 147.934 92.6777 149.73 93.3809 151.293C94.1035 152.855 95.0508 154.174 96.2227 155.248C97.4141 156.303 98.791 157.113 100.354 157.68C101.916 158.227 103.547 158.5 105.246 158.5C106.945 158.5 108.566 158.227 110.109 157.68C111.652 157.113 113.01 156.303 114.182 155.248C115.373 154.174 116.32 152.855 117.023 151.293C117.727 149.73 118.078 147.934 118.078 145.902Z" fill="#2B8BFC"/>
<path d="M128.947 83.9023C128.947 87.1055 128.332 90.0156 127.102 92.6328C125.891 95.2305 124.221 97.457 122.092 99.3125C119.963 101.148 117.453 102.574 114.562 103.59C111.672 104.586 108.566 105.084 105.246 105.084C103.02 105.084 100.891 104.859 98.8594 104.41C96.8281 103.961 94.9238 103.307 93.1465 102.447C91.3887 101.588 89.7871 100.543 88.3418 99.3125C86.916 98.0625 85.6953 96.6562 84.6797 95.0938C83.6641 93.5312 82.873 91.8125 82.3066 89.9375C81.7598 88.0625 81.4863 86.0508 81.4863 83.9023C81.4863 81.7734 81.7598 79.7715 82.3066 77.8965C82.873 76.002 83.6641 74.2734 84.6797 72.7109C85.6953 71.1484 86.916 69.752 88.3418 68.5215C89.7871 67.2715 91.3887 66.2168 93.1465 65.3574C94.9238 64.498 96.8281 63.8438 98.8594 63.3945C100.891 62.9453 103.02 62.7207 105.246 62.7207C108.566 62.7207 111.672 63.2285 114.562 64.2441C117.453 65.2402 119.963 66.666 122.092 68.5215C124.221 70.3574 125.891 72.584 127.102 75.2012C128.332 77.7988 128.947 80.6992 128.947 83.9023ZM118.078 83.9023C118.078 81.8711 117.727 80.0742 117.023 78.5117C116.32 76.9492 115.373 75.6309 114.182 74.5566C113.01 73.4824 111.652 72.6719 110.109 72.125C108.566 71.5781 106.945 71.3047 105.246 71.3047C103.547 71.3047 101.916 71.5781 100.354 72.125C98.791 72.6719 97.4141 73.4824 96.2227 74.5566C95.0508 75.6309 94.1035 76.9492 93.3809 78.5117C92.6777 80.0742 92.3262 81.8711 92.3262 83.9023C92.3262 85.9336 92.6777 87.7305 93.3809 89.293C94.1035 90.8555 95.0508 92.1738 96.2227 93.248C97.4141 94.3027 98.791 95.1133 100.354 95.6797C101.916 96.2266 103.547 96.5 105.246 96.5C106.945 96.5 108.566 96.2266 110.109 95.6797C111.652 95.1133 113.01 94.3027 114.182 93.248C115.373 92.1738 116.32 90.8555 117.023 89.293C117.727 87.7305 118.078 85.9336 118.078 83.9023Z" fill="white"/>
<path d="M128.947 21.9023C128.947 25.1055 128.332 28.0156 127.102 30.6328C125.891 33.2305 124.221 35.457 122.092 37.3125C119.963 39.1484 117.453 40.5742 114.562 41.5898C111.672 42.5859 108.566 43.084 105.246 43.084C103.02 43.084 100.891 42.8594 98.8594 42.4102C96.8281 41.9609 94.9238 41.3066 93.1465 40.4473C91.3887 39.5879 89.7871 38.543 88.3418 37.3125C86.916 36.0625 85.6953 34.6562 84.6797 33.0938C83.6641 31.5312 82.873 29.8125 82.3066 27.9375C81.7598 26.0625 81.4863 24.0508 81.4863 21.9023C81.4863 19.7734 81.7598 17.7715 82.3066 15.8965C82.873 14.002 83.6641 12.2734 84.6797 10.7109C85.6953 9.14844 86.916 7.75195 88.3418 6.52148C89.7871 5.27148 91.3887 4.2168 93.1465 3.35742C94.9238 2.49805 96.8281 1.84375 98.8594 1.39453C100.891 0.945312 103.02 0.720703 105.246 0.720703C108.566 0.720703 111.672 1.22852 114.562 2.24414C117.453 3.24023 119.963 4.66602 122.092 6.52148C124.221 8.35742 125.891 10.584 127.102 13.2012C128.332 15.7988 128.947 18.6992 128.947 21.9023ZM118.078 21.9023C118.078 19.8711 117.727 18.0742 117.023 16.5117C116.32 14.9492 115.373 13.6309 114.182 12.5566C113.01 11.4824 111.652 10.6719 110.109 10.125C108.566 9.57812 106.945 9.30469 105.246 9.30469C103.547 9.30469 101.916 9.57812 100.354 10.125C98.791 10.6719 97.4141 11.4824 96.2227 12.5566C95.0508 13.6309 94.1035 14.9492 93.3809 16.5117C92.6777 18.0742 92.3262 19.8711 92.3262 21.9023C92.3262 23.9336 92.6777 25.7305 93.3809 27.293C94.1035 28.8555 95.0508 30.1738 96.2227 31.248C97.4141 32.3027 98.791 33.1133 100.354 33.6797C101.916 34.2266 103.547 34.5 105.246 34.5C106.945 34.5 108.566 34.2266 110.109 33.6797C111.652 33.1133 113.01 32.3027 114.182 31.248C115.373 30.1738 116.32 28.8555 117.023 27.293C117.727 25.7305 118.078 23.9336 118.078 21.9023Z" fill="#2B8BFC"/>
</svg>
