<svg width="158" height="106" viewBox="0 0 158 106" fill="none" xmlns="http://www.w3.org/2000/svg">
<path d="M128.473 86.7734C128.473 88.4531 128.629 89.8301 128.941 90.9043C129.254 91.959 129.762 92.7988 130.465 93.4238C131.168 94.0488 132.076 94.4785 133.189 94.7129C134.322 94.9473 135.709 95.0645 137.35 95.0645H157.975V104H135.123C131.959 104 129.264 103.746 127.037 103.238C124.83 102.711 123.023 101.91 121.617 100.836C120.211 99.7422 119.186 98.3652 118.541 96.7051C117.916 95.0449 117.604 93.0723 117.604 90.7871V63.7461H128.473V86.7734Z" fill="#2B8BFC"/>
<path d="M104.42 102.008C101.119 103.102 97.8184 103.883 94.5176 104.352C91.2363 104.84 87.877 105.084 84.4395 105.084C80.0449 105.084 76.1289 104.615 72.6914 103.678C69.2734 102.721 66.3926 101.344 64.0488 99.5469C61.7051 97.75 59.918 95.5527 58.6875 92.9551C57.457 90.3574 56.8418 87.418 56.8418 84.1367C56.8418 81.0898 57.457 78.2676 58.6875 75.6699C59.9375 73.0527 61.6953 70.7871 63.9609 68.873C66.2461 66.9395 69 65.4355 72.2227 64.3613C75.4453 63.2676 79.0391 62.7207 83.0039 62.7207C86.6562 62.7207 89.9961 63.2187 93.0234 64.2148C96.0703 65.1914 98.6777 66.6465 100.846 68.5801C103.033 70.5137 104.723 72.8965 105.914 75.7285C107.125 78.5605 107.73 81.8223 107.73 85.5137V88.209H68.0625C68.4141 89.4785 68.9902 90.6406 69.791 91.6953C70.6113 92.75 71.7148 93.6484 73.1016 94.3906C74.4883 95.1328 76.1875 95.709 78.1992 96.1191C80.2305 96.5293 82.6523 96.7344 85.4648 96.7344C87.457 96.7344 89.4102 96.6172 91.3242 96.3828C93.2383 96.1289 95.0254 95.8066 96.6855 95.416C98.3457 95.0059 99.8398 94.5566 101.168 94.0684C102.516 93.5801 103.6 93.0918 104.42 92.6035V102.008ZM96.9199 80.2402C96.8223 79.2441 96.5195 78.2188 96.0117 77.1641C95.5234 76.0898 94.7422 75.123 93.668 74.2637C92.5938 73.4043 91.1875 72.7012 89.4492 72.1543C87.7109 71.5879 85.543 71.3047 82.9453 71.3047C80.5039 71.3047 78.3945 71.6074 76.6172 72.2129C74.8398 72.8184 73.3457 73.5703 72.1348 74.4688C70.9434 75.3672 70.0156 76.334 69.3516 77.3691C68.6875 78.4043 68.2578 79.3613 68.0625 80.2402H96.9199Z" fill="#2B8BFC"/>
<path d="M49.6055 83.8438C49.6055 86.4219 49.3223 88.7168 48.7559 90.7285C48.1895 92.7207 47.3887 94.459 46.3535 95.9434C45.3379 97.4277 44.1074 98.6875 42.6621 99.7227C41.2363 100.758 39.6445 101.588 37.8867 102.213C36.1289 102.838 34.2344 103.297 32.2031 103.59C30.1719 103.863 28.0527 104 25.8457 104H0.298828L0.298828 63.7461L25.7871 63.7461C27.9941 63.7461 30.1133 63.8926 32.1445 64.1855C34.1758 64.459 36.0703 64.9082 37.8281 65.5332C39.6055 66.1582 41.2168 66.9883 42.6621 68.0234C44.1074 69.0391 45.3379 70.2988 46.3535 71.8027C47.3887 73.2871 48.1895 75.0254 48.7559 77.0176C49.3223 79.0098 49.6055 81.2852 49.6055 83.8438ZM38.6484 83.8438C38.6484 81.9102 38.3945 80.2305 37.8867 78.8047C37.3984 77.3789 36.5977 76.207 35.4844 75.2891C34.3906 74.3516 32.9551 73.6582 31.1777 73.209C29.4004 72.7402 27.2324 72.5059 24.6738 72.5059H11.168L11.168 95.2402H24.6738C27.2324 95.2402 29.4004 95.0156 31.1777 94.5664C32.9551 94.0977 34.3906 93.3945 35.4844 92.457C36.5977 91.5 37.3984 90.3086 37.8867 88.8828C38.3945 87.457 38.6484 85.7773 38.6484 83.8438Z" fill="#2B8BFC"/>
<path d="M128.736 21.9023C128.736 25.1055 128.121 28.0156 126.891 30.6328C125.68 33.2305 124.01 35.457 121.881 37.3125C119.752 39.1484 117.242 40.5742 114.352 41.5898C111.461 42.5859 108.355 43.084 105.035 43.084C102.809 43.084 100.68 42.8594 98.6484 42.4102C96.6172 41.9609 94.7129 41.3066 92.9355 40.4473C91.1777 39.5879 89.5762 38.543 88.1309 37.3125C86.7051 36.0625 85.4844 34.6562 84.4688 33.0938C83.4531 31.5312 82.6621 29.8125 82.0957 27.9375C81.5488 26.0625 81.2754 24.0508 81.2754 21.9023C81.2754 19.7734 81.5488 17.7715 82.0957 15.8965C82.6621 14.002 83.4531 12.2734 84.4688 10.7109C85.4844 9.14844 86.7051 7.75195 88.1309 6.52148C89.5762 5.27148 91.1777 4.2168 92.9355 3.35742C94.7129 2.49805 96.6172 1.84375 98.6484 1.39453C100.68 0.945312 102.809 0.720703 105.035 0.720703C108.355 0.720703 111.461 1.22852 114.352 2.24414C117.242 3.24023 119.752 4.66602 121.881 6.52148C124.01 8.35742 125.68 10.584 126.891 13.2012C128.121 15.7988 128.736 18.6992 128.736 21.9023ZM117.867 21.9023C117.867 19.8711 117.516 18.0742 116.812 16.5117C116.109 14.9492 115.162 13.6309 113.971 12.5566C112.799 11.4824 111.441 10.6719 109.898 10.125C108.355 9.57812 106.734 9.30469 105.035 9.30469C103.336 9.30469 101.705 9.57812 100.143 10.125C98.5801 10.6719 97.2031 11.4824 96.0117 12.5566C94.8398 13.6309 93.8926 14.9492 93.1699 16.5117C92.4668 18.0742 92.1152 19.8711 92.1152 21.9023C92.1152 23.9336 92.4668 25.7305 93.1699 27.293C93.8926 28.8555 94.8398 30.1738 96.0117 31.248C97.2031 32.3027 98.5801 33.1133 100.143 33.6797C101.705 34.2266 103.336 34.5 105.035 34.5C106.734 34.5 108.355 34.2266 109.898 33.6797C111.441 33.1133 112.799 32.3027 113.971 31.248C115.162 30.1738 116.109 28.8555 116.812 27.293C117.516 25.7305 117.867 23.9336 117.867 21.9023Z" fill="#2B8BFC"/>
<path d="M11.168 1.74609V6.16992C12.125 5.56445 13.1602 4.93945 14.2734 4.29492C15.4062 3.65039 16.627 3.06445 17.9355 2.53711C19.2637 2.00977 20.6797 1.58008 22.1836 1.24805C23.707 0.896484 25.3477 0.720703 27.1055 0.720703C28.8242 0.720703 30.3281 0.90625 31.6172 1.27734C32.9062 1.62891 34.0195 2.09766 34.957 2.68359C35.9141 3.25 36.7246 3.89453 37.3887 4.61719C38.0527 5.32031 38.6289 6.02344 39.1172 6.72656C40.5039 5.82812 41.8711 5.00781 43.2188 4.26562C44.5664 3.52344 45.9238 2.88867 47.291 2.36133C48.6582 1.83398 50.0547 1.43359 51.4805 1.16016C52.9062 0.867187 54.3906 0.720703 55.9336 0.720703C58.3945 0.720703 60.5918 1.0625 62.5254 1.74609C64.4785 2.42969 66.1289 3.36719 67.4766 4.55859C68.8242 5.75 69.8496 7.15625 70.5527 8.77734C71.2754 10.3789 71.6367 12.0977 71.6367 13.9336V42L60.7676 42L60.7676 15.4863C60.7676 14.4121 60.6016 13.4844 60.2695 12.7031C59.9375 11.9219 59.4883 11.2871 58.9219 10.7988C58.375 10.3105 57.7207 9.94922 56.959 9.71484C56.2168 9.48047 55.4258 9.36328 54.5859 9.36328C50.6797 9.36328 46.2266 11.1211 41.2266 14.6367C41.2852 14.9687 41.3242 15.3594 41.3438 15.8086C41.3828 16.2578 41.4023 16.707 41.4023 17.1562L41.4023 42H30.5332L30.5332 15.252C30.5332 14.1777 30.3672 13.2695 30.0352 12.5273C29.7031 11.7656 29.2441 11.1504 28.6582 10.6816C28.0918 10.2129 27.4277 9.88086 26.666 9.68555C25.9238 9.4707 25.1328 9.36328 24.293 9.36328C23.2773 9.36328 22.2031 9.50977 21.0703 9.80273C19.957 10.0957 18.8242 10.5059 17.6719 11.0332C16.5391 11.5605 15.416 12.1855 14.3027 12.9082C13.209 13.6309 12.1641 14.4121 11.168 15.252L11.168 42H0.298828L0.298828 1.74609L11.168 1.74609Z" fill="#2B8BFC"/>
</svg>
