<svg width="230" height="230" viewBox="0 0 230 230" fill="none" xmlns="http://www.w3.org/2000/svg">
<path d="M229.248 207.902C229.248 211.105 228.633 214.016 227.402 216.633C226.191 219.23 224.521 221.457 222.393 223.312C220.264 225.148 217.754 226.574 214.863 227.59C211.973 228.586 208.867 229.084 205.547 229.084C203.32 229.084 201.191 228.859 199.16 228.41C197.129 227.961 195.225 227.307 193.447 226.447C191.689 225.588 190.088 224.543 188.643 223.312C187.217 222.062 185.996 220.656 184.98 219.094C183.965 217.531 183.174 215.812 182.607 213.938C182.061 212.062 181.787 210.051 181.787 207.902C181.787 205.773 182.061 203.771 182.607 201.896C183.174 200.002 183.965 198.273 184.98 196.711C185.996 195.148 187.217 193.752 188.643 192.521C190.088 191.271 191.689 190.217 193.447 189.357C195.225 188.498 197.129 187.844 199.16 187.395C201.191 186.945 203.32 186.721 205.547 186.721C208.867 186.721 211.973 187.229 214.863 188.244C217.754 189.24 220.264 190.666 222.393 192.521C224.521 194.357 226.191 196.584 227.402 199.201C228.633 201.799 229.248 204.699 229.248 207.902ZM218.379 207.902C218.379 205.871 218.027 204.074 217.324 202.512C216.621 200.949 215.674 199.631 214.482 198.557C213.311 197.482 211.953 196.672 210.41 196.125C208.867 195.578 207.246 195.305 205.547 195.305C203.848 195.305 202.217 195.578 200.654 196.125C199.092 196.672 197.715 197.482 196.523 198.557C195.352 199.631 194.404 200.949 193.682 202.512C192.979 204.074 192.627 205.871 192.627 207.902C192.627 209.934 192.979 211.73 193.682 213.293C194.404 214.855 195.352 216.174 196.523 217.248C197.715 218.303 199.092 219.113 200.654 219.68C202.217 220.227 203.848 220.5 205.547 220.5C207.246 220.5 208.867 220.227 210.41 219.68C211.953 219.113 213.311 218.303 214.482 217.248C215.674 216.174 216.621 214.855 217.324 213.293C218.027 211.73 218.379 209.934 218.379 207.902Z" fill="#2B8BFC"/>
<path d="M168.814 207.902C168.814 211.105 168.199 214.016 166.969 216.633C165.758 219.23 164.088 221.457 161.959 223.312C159.83 225.148 157.32 226.574 154.43 227.59C151.539 228.586 148.434 229.084 145.113 229.084C142.887 229.084 140.758 228.859 138.727 228.41C136.695 227.961 134.791 227.307 133.014 226.447C131.256 225.588 129.654 224.543 128.209 223.312C126.783 222.062 125.562 220.656 124.547 219.094C123.531 217.531 122.74 215.812 122.174 213.938C121.627 212.062 121.354 210.051 121.354 207.902C121.354 205.773 121.627 203.771 122.174 201.896C122.74 200.002 123.531 198.273 124.547 196.711C125.562 195.148 126.783 193.752 128.209 192.521C129.654 191.271 131.256 190.217 133.014 189.357C134.791 188.498 136.695 187.844 138.727 187.395C140.758 186.945 142.887 186.721 145.113 186.721C148.434 186.721 151.539 187.229 154.43 188.244C157.32 189.24 159.83 190.666 161.959 192.521C164.088 194.357 165.758 196.584 166.969 199.201C168.199 201.799 168.814 204.699 168.814 207.902ZM157.945 207.902C157.945 205.871 157.594 204.074 156.891 202.512C156.188 200.949 155.24 199.631 154.049 198.557C152.877 197.482 151.52 196.672 149.977 196.125C148.434 195.578 146.812 195.305 145.113 195.305C143.414 195.305 141.783 195.578 140.221 196.125C138.658 196.672 137.281 197.482 136.09 198.557C134.918 199.631 133.971 200.949 133.248 202.512C132.545 204.074 132.193 205.871 132.193 207.902C132.193 209.934 132.545 211.73 133.248 213.293C133.971 214.855 134.918 216.174 136.09 217.248C137.281 218.303 138.658 219.113 140.221 219.68C141.783 220.227 143.414 220.5 145.113 220.5C146.812 220.5 148.434 220.227 149.977 219.68C151.52 219.113 152.877 218.303 154.049 217.248C155.24 216.174 156.188 214.855 156.891 213.293C157.594 211.73 157.945 209.934 157.945 207.902Z" fill="white"/>
<path d="M108.381 207.902C108.381 211.105 107.766 214.016 106.535 216.633C105.324 219.23 103.654 221.457 101.525 223.312C99.3965 225.148 96.8867 226.574 93.9961 227.59C91.1055 228.586 88 229.084 84.6797 229.084C82.4531 229.084 80.3242 228.859 78.293 228.41C76.2617 227.961 74.3574 227.307 72.5801 226.447C70.8223 225.588 69.2207 224.543 67.7754 223.312C66.3496 222.062 65.1289 220.656 64.1133 219.094C63.0977 217.531 62.3066 215.812 61.7402 213.938C61.1934 212.062 60.9199 210.051 60.9199 207.902C60.9199 205.773 61.1934 203.771 61.7402 201.896C62.3066 200.002 63.0977 198.273 64.1133 196.711C65.1289 195.148 66.3496 193.752 67.7754 192.521C69.2207 191.271 70.8223 190.217 72.5801 189.357C74.3574 188.498 76.2617 187.844 78.293 187.395C80.3242 186.945 82.4531 186.721 84.6797 186.721C88 186.721 91.1055 187.229 93.9961 188.244C96.8867 189.24 99.3965 190.666 101.525 192.521C103.654 194.357 105.324 196.584 106.535 199.201C107.766 201.799 108.381 204.699 108.381 207.902ZM97.5117 207.902C97.5117 205.871 97.1602 204.074 96.457 202.512C95.7539 200.949 94.8066 199.631 93.6152 198.557C92.4434 197.482 91.0859 196.672 89.543 196.125C88 195.578 86.3789 195.305 84.6797 195.305C82.9805 195.305 81.3496 195.578 79.7871 196.125C78.2246 196.672 76.8477 197.482 75.6562 198.557C74.4844 199.631 73.5371 200.949 72.8145 202.512C72.1113 204.074 71.7598 205.871 71.7598 207.902C71.7598 209.934 72.1113 211.73 72.8145 213.293C73.5371 214.855 74.4844 216.174 75.6562 217.248C76.8477 218.303 78.2246 219.113 79.7871 219.68C81.3496 220.227 82.9805 220.5 84.6797 220.5C86.3789 220.5 88 220.227 89.543 219.68C91.0859 219.113 92.4434 218.303 93.6152 217.248C94.8066 216.174 95.7539 214.855 96.457 213.293C97.1602 211.73 97.5117 209.934 97.5117 207.902Z" fill="#2B8BFC"/>
<path d="M47.9473 207.902C47.9473 211.105 47.332 214.016 46.1016 216.633C44.8906 219.23 43.2207 221.457 41.0918 223.312C38.9629 225.148 36.4531 226.574 33.5625 227.59C30.6719 228.586 27.5664 229.084 24.2461 229.084C22.0195 229.084 19.8906 228.859 17.8594 228.41C15.8281 227.961 13.9238 227.307 12.1465 226.447C10.3887 225.588 8.78711 224.543 7.3418 223.312C5.91602 222.062 4.69531 220.656 3.67969 219.094C2.66406 217.531 1.87305 215.812 1.30664 213.938C0.759766 212.062 0.486328 210.051 0.486328 207.902C0.486328 205.773 0.759766 203.771 1.30664 201.896C1.87305 200.002 2.66406 198.273 3.67969 196.711C4.69531 195.148 5.91602 193.752 7.3418 192.521C8.78711 191.271 10.3887 190.217 12.1465 189.357C13.9238 188.498 15.8281 187.844 17.8594 187.395C19.8906 186.945 22.0195 186.721 24.2461 186.721C27.5664 186.721 30.6719 187.229 33.5625 188.244C36.4531 189.24 38.9629 190.666 41.0918 192.521C43.2207 194.357 44.8906 196.584 46.1016 199.201C47.332 201.799 47.9473 204.699 47.9473 207.902ZM37.0781 207.902C37.0781 205.871 36.7266 204.074 36.0234 202.512C35.3203 200.949 34.373 199.631 33.1816 198.557C32.0098 197.482 30.6523 196.672 29.1094 196.125C27.5664 195.578 25.9453 195.305 24.2461 195.305C22.5469 195.305 20.916 195.578 19.3535 196.125C17.791 196.672 16.4141 197.482 15.2227 198.557C14.0508 199.631 13.1035 200.949 12.3809 202.512C11.6777 204.074 11.3262 205.871 11.3262 207.902C11.3262 209.934 11.6777 211.73 12.3809 213.293C13.1035 214.855 14.0508 216.174 15.2227 217.248C16.4141 218.303 17.791 219.113 19.3535 219.68C20.916 220.227 22.5469 220.5 24.2461 220.5C25.9453 220.5 27.5664 220.227 29.1094 219.68C30.6523 219.113 32.0098 218.303 33.1816 217.248C34.373 216.174 35.3203 214.855 36.0234 213.293C36.7266 211.73 37.0781 209.934 37.0781 207.902Z" fill="white"/>
<path d="M47.9473 145.902C47.9473 149.105 47.332 152.016 46.1016 154.633C44.8906 157.23 43.2207 159.457 41.0918 161.312C38.9629 163.148 36.4531 164.574 33.5625 165.59C30.6719 166.586 27.5664 167.084 24.2461 167.084C22.0195 167.084 19.8906 166.859 17.8594 166.41C15.8281 165.961 13.9238 165.307 12.1465 164.447C10.3887 163.588 8.78711 162.543 7.3418 161.312C5.91602 160.062 4.69531 158.656 3.67969 157.094C2.66406 155.531 1.87305 153.812 1.30664 151.938C0.759766 150.062 0.486328 148.051 0.486328 145.902C0.486328 143.773 0.759766 141.771 1.30664 139.896C1.87305 138.002 2.66406 136.273 3.67969 134.711C4.69531 133.148 5.91602 131.752 7.3418 130.521C8.78711 129.271 10.3887 128.217 12.1465 127.357C13.9238 126.498 15.8281 125.844 17.8594 125.395C19.8906 124.945 22.0195 124.721 24.2461 124.721C27.5664 124.721 30.6719 125.229 33.5625 126.244C36.4531 127.24 38.9629 128.666 41.0918 130.521C43.2207 132.357 44.8906 134.584 46.1016 137.201C47.332 139.799 47.9473 142.699 47.9473 145.902ZM37.0781 145.902C37.0781 143.871 36.7266 142.074 36.0234 140.512C35.3203 138.949 34.373 137.631 33.1816 136.557C32.0098 135.482 30.6523 134.672 29.1094 134.125C27.5664 133.578 25.9453 133.305 24.2461 133.305C22.5469 133.305 20.916 133.578 19.3535 134.125C17.791 134.672 16.4141 135.482 15.2227 136.557C14.0508 137.631 13.1035 138.949 12.3809 140.512C11.6777 142.074 11.3262 143.871 11.3262 145.902C11.3262 147.934 11.6777 149.73 12.3809 151.293C13.1035 152.855 14.0508 154.174 15.2227 155.248C16.4141 156.303 17.791 157.113 19.3535 157.68C20.916 158.227 22.5469 158.5 24.2461 158.5C25.9453 158.5 27.5664 158.227 29.1094 157.68C30.6523 157.113 32.0098 156.303 33.1816 155.248C34.373 154.174 35.3203 152.855 36.0234 151.293C36.7266 149.73 37.0781 147.934 37.0781 145.902Z" fill="#2B8BFC"/>
<path d="M47.9473 83.9023C47.9473 87.1055 47.332 90.0156 46.1016 92.6328C44.8906 95.2305 43.2207 97.457 41.0918 99.3125C38.9629 101.148 36.4531 102.574 33.5625 103.59C30.6719 104.586 27.5664 105.084 24.2461 105.084C22.0195 105.084 19.8906 104.859 17.8594 104.41C15.8281 103.961 13.9238 103.307 12.1465 102.447C10.3887 101.588 8.78711 100.543 7.3418 99.3125C5.91602 98.0625 4.69531 96.6562 3.67969 95.0938C2.66406 93.5312 1.87305 91.8125 1.30664 89.9375C0.759766 88.0625 0.486328 86.0508 0.486328 83.9023C0.486328 81.7734 0.759766 79.7715 1.30664 77.8965C1.87305 76.002 2.66406 74.2734 3.67969 72.7109C4.69531 71.1484 5.91602 69.752 7.3418 68.5215C8.78711 67.2715 10.3887 66.2168 12.1465 65.3574C13.9238 64.498 15.8281 63.8438 17.8594 63.3945C19.8906 62.9453 22.0195 62.7207 24.2461 62.7207C27.5664 62.7207 30.6719 63.2285 33.5625 64.2441C36.4531 65.2402 38.9629 66.666 41.0918 68.5215C43.2207 70.3574 44.8906 72.584 46.1016 75.2012C47.332 77.7988 47.9473 80.6992 47.9473 83.9023ZM37.0781 83.9023C37.0781 81.8711 36.7266 80.0742 36.0234 78.5117C35.3203 76.9492 34.373 75.6309 33.1816 74.5566C32.0098 73.4824 30.6523 72.6719 29.1094 72.125C27.5664 71.5781 25.9453 71.3047 24.2461 71.3047C22.5469 71.3047 20.916 71.5781 19.3535 72.125C17.791 72.6719 16.4141 73.4824 15.2227 74.5566C14.0508 75.6309 13.1035 76.9492 12.3809 78.5117C11.6777 80.0742 11.3262 81.8711 11.3262 83.9023C11.3262 85.9336 11.6777 87.7305 12.3809 89.293C13.1035 90.8555 14.0508 92.1738 15.2227 93.248C16.4141 94.3027 17.791 95.1133 19.3535 95.6797C20.916 96.2266 22.5469 96.5 24.2461 96.5C25.9453 96.5 27.5664 96.2266 29.1094 95.6797C30.6523 95.1133 32.0098 94.3027 33.1816 93.248C34.373 92.1738 35.3203 90.8555 36.0234 89.293C36.7266 87.7305 37.0781 85.9336 37.0781 83.9023Z" fill="white"/>
<path d="M47.9473 21.9023C47.9473 25.1055 47.332 28.0156 46.1016 30.6328C44.8906 33.2305 43.2207 35.457 41.0918 37.3125C38.9629 39.1484 36.4531 40.5742 33.5625 41.5898C30.6719 42.5859 27.5664 43.084 24.2461 43.084C22.0195 43.084 19.8906 42.8594 17.8594 42.4102C15.8281 41.9609 13.9238 41.3066 12.1465 40.4473C10.3887 39.5879 8.78711 38.543 7.3418 37.3125C5.91602 36.0625 4.69531 34.6562 3.67969 33.0938C2.66406 31.5312 1.87305 29.8125 1.30664 27.9375C0.759766 26.0625 0.486328 24.0508 0.486328 21.9023C0.486328 19.7734 0.759766 17.7715 1.30664 15.8965C1.87305 14.002 2.66406 12.2734 3.67969 10.7109C4.69531 9.14844 5.91602 7.75195 7.3418 6.52148C8.78711 5.27148 10.3887 4.2168 12.1465 3.35742C13.9238 2.49805 15.8281 1.84375 17.8594 1.39453C19.8906 0.945312 22.0195 0.720703 24.2461 0.720703C27.5664 0.720703 30.6719 1.22852 33.5625 2.24414C36.4531 3.24023 38.9629 4.66602 41.0918 6.52148C43.2207 8.35742 44.8906 10.584 46.1016 13.2012C47.332 15.7988 47.9473 18.6992 47.9473 21.9023ZM37.0781 21.9023C37.0781 19.8711 36.7266 18.0742 36.0234 16.5117C35.3203 14.9492 34.373 13.6309 33.1816 12.5566C32.0098 11.4824 30.6523 10.6719 29.1094 10.125C27.5664 9.57812 25.9453 9.30469 24.2461 9.30469C22.5469 9.30469 20.916 9.57812 19.3535 10.125C17.791 10.6719 16.4141 11.4824 15.2227 12.5566C14.0508 13.6309 13.1035 14.9492 12.3809 16.5117C11.6777 18.0742 11.3262 19.8711 11.3262 21.9023C11.3262 23.9336 11.6777 25.7305 12.3809 27.293C13.1035 28.8555 14.0508 30.1738 15.2227 31.248C16.4141 32.3027 17.791 33.1133 19.3535 33.6797C20.916 34.2266 22.5469 34.5 24.2461 34.5C25.9453 34.5 27.5664 34.2266 29.1094 33.6797C30.6523 33.1133 32.0098 32.3027 33.1816 31.248C34.373 30.1738 35.3203 28.8555 36.0234 27.293C36.7266 25.7305 37.0781 23.9336 37.0781 21.9023Z" fill="#2B8BFC"/>
</svg>
