<svg width="360" height="180" viewBox="0 0 360 180" fill="none" xmlns="http://www.w3.org/2000/svg">
<path fill-rule="evenodd" clip-rule="evenodd" d="M180 180C279.411 180 360 99.4113 360 0L0 0C0 99.4113 80.5887 180 180 180Z" fill="white"/>
<path d="M320.088 52.9065C319.283 56.1227 318.257 59.0382 317.011 61.6532C315.776 64.2881 314.44 66.6522 313.002 68.7457L304.978 66.7374C305.714 65.9573 306.465 65.0539 307.23 64.0271C307.99 63.0162 308.721 61.8879 309.422 60.6421C310.123 59.3964 310.776 58.0371 311.381 56.5645C311.987 55.0918 312.501 53.5116 312.923 51.8239C313.449 49.7222 313.756 47.8534 313.844 46.2174C313.932 44.5813 313.861 43.1423 313.63 41.9003C313.4 40.6583 313.032 39.5933 312.526 38.7055C312.037 37.8217 311.462 37.0772 310.801 36.4719C310.141 35.8667 309.432 35.3849 308.676 35.0264C307.92 34.6679 307.168 34.3951 306.419 34.2078C305.767 34.0444 305.042 33.9308 304.246 33.8669C303.446 33.8189 302.618 33.8824 301.762 34.0573C300.902 34.2481 300.038 34.5903 299.17 35.0836C298.302 35.577 297.464 36.2893 296.656 37.2206C295.844 38.1678 295.081 39.3558 294.368 40.7847C293.671 42.2175 293.062 43.9768 292.54 46.0625C292.277 47.1134 292.079 48.0368 291.948 48.8329C291.816 49.629 291.726 50.3595 291.679 51.0242C291.627 51.7049 291.611 52.3438 291.63 52.9409C291.646 53.5539 291.666 54.1849 291.689 54.8337L295.654 55.8259L298.14 45.8908L305.329 47.69L300.625 66.4854L283.86 62.2894C283.756 61.0116 283.721 59.5985 283.753 58.05C283.797 56.5214 283.903 54.9491 284.071 53.333C284.219 51.7288 284.424 50.1307 284.687 48.5385C284.95 46.9463 285.255 45.4576 285.602 44.0724C286.14 41.923 286.799 39.897 287.58 37.9945C288.361 36.0919 289.261 34.3546 290.28 32.7825C291.311 31.2303 292.466 29.8612 293.744 28.6753C295.018 27.5054 296.418 26.5782 297.943 25.894C299.463 25.2256 301.114 24.818 302.893 24.6712C304.684 24.5443 306.607 24.7378 308.661 25.2519C310.699 25.7619 312.474 26.5108 313.986 27.4984C315.499 28.486 316.764 29.6486 317.783 30.9864C318.798 32.3401 319.587 33.849 320.152 35.513C320.713 37.193 321.073 38.9665 321.232 40.8335C321.402 42.7203 321.386 44.6788 321.182 46.7089C320.975 48.7549 320.61 50.8208 320.088 52.9065Z" fill="black"/>
<path d="M257.389 96.8988C258.326 94.131 259.472 91.5214 260.828 89.0699C262.161 86.6216 263.698 84.2445 265.437 81.9386C267.662 78.9906 269.958 76.6009 272.327 74.7694C274.699 72.961 277.08 71.7253 279.472 71.0625C281.863 70.3997 284.242 70.3129 286.607 70.8022C288.973 71.2915 291.256 72.3665 293.457 74.0271C295.501 75.5692 297.083 77.4103 298.202 79.5504C299.326 81.7136 299.956 84.0394 300.093 86.528C300.234 89.0395 299.849 91.648 298.938 94.3535C298.041 97.0689 296.589 99.7565 294.582 102.416C292.734 104.866 290.709 106.855 288.509 108.381C286.312 109.931 284.016 110.944 281.622 111.419C279.217 111.908 276.764 111.836 274.261 111.201C271.749 110.58 269.254 109.336 266.778 107.467L264.97 106.103L285.046 79.4932C284.017 79.0865 282.945 78.8849 281.833 78.8883C280.71 78.9048 279.549 79.1903 278.349 79.7449C277.149 80.2995 275.903 81.1478 274.61 82.2897C273.306 83.4447 271.943 84.9656 270.52 86.8523C269.511 88.1887 268.601 89.5582 267.79 90.9608C266.992 92.3733 266.303 93.7352 265.725 95.0466C265.16 96.3679 264.705 97.5975 264.36 98.7356C264.006 99.8868 263.785 100.861 263.697 101.658L257.389 96.8988ZM275.787 102.884C276.504 103.323 277.345 103.639 278.31 103.832C279.278 104.048 280.322 104.013 281.442 103.728C282.562 103.442 283.745 102.855 284.992 101.965C286.252 101.086 287.539 99.775 288.854 98.0324C290.089 96.3947 290.954 94.8264 291.447 93.3277C291.94 91.829 292.192 90.4461 292.202 89.1791C292.203 87.9252 292.024 86.8135 291.665 85.8441C291.307 84.8748 290.883 84.1021 290.392 83.5263L275.787 102.884Z" fill="black"/>
<path d="M222.355 115.732L231.674 132.24C232.295 133.34 232.949 134.281 233.635 135.062C234.329 135.858 235.111 136.425 235.98 136.763C236.844 137.124 237.829 137.218 238.938 137.044C240.04 136.893 241.306 136.414 242.735 135.608C243.821 134.994 244.88 134.199 245.911 133.221C246.936 132.265 247.897 131.214 248.795 130.066C249.692 128.919 250.496 127.721 251.204 126.473C251.899 125.232 252.463 124.028 252.897 122.86L242.464 104.38L250.418 99.8894L267.047 129.346L259.093 133.836L256.818 129.806C256.14 130.942 255.394 132.108 254.58 133.303C253.773 134.512 252.863 135.704 251.849 136.88C250.836 138.055 249.695 139.189 248.427 140.282C247.159 141.375 245.732 142.369 244.145 143.264C242.159 144.386 240.249 145.143 238.417 145.537C236.579 145.953 234.866 146.024 233.28 145.751C231.701 145.493 230.271 144.896 228.989 143.961C227.702 143.048 226.622 141.82 225.75 140.277L214.422 120.21L222.355 115.732Z" fill="black"/>
<path d="M171.394 126.068C174.058 124.868 176.749 123.929 179.467 123.25C182.167 122.558 184.954 122.062 187.827 121.764C191.5 121.383 194.814 121.435 197.769 121.92C200.709 122.424 203.236 123.325 205.351 124.623C207.466 125.922 209.15 127.604 210.404 129.668C211.658 131.732 212.427 134.136 212.712 136.879C212.976 139.425 212.706 141.838 211.903 144.116C211.086 146.412 209.813 148.458 208.085 150.254C206.343 152.069 204.172 153.564 201.571 154.742C198.972 155.936 196.016 156.705 192.702 157.048C189.649 157.365 186.814 157.239 184.198 156.669C181.566 156.117 179.261 155.127 177.281 153.699C175.285 152.272 173.666 150.427 172.424 148.163C171.167 145.901 170.378 143.228 170.057 140.142L169.824 137.889L202.98 134.448C202.576 133.418 201.993 132.496 201.232 131.684C200.455 130.874 199.455 130.219 198.232 129.718C197.008 129.218 195.538 128.884 193.821 128.716C192.087 128.549 190.045 128.588 187.695 128.832C186.029 129.005 184.407 129.272 182.828 129.634C181.25 130.012 179.784 130.437 178.43 130.907C177.078 131.394 175.868 131.899 174.8 132.422C173.716 132.947 172.853 133.45 172.209 133.929L171.394 126.068ZM179.551 143.612C179.719 144.436 180.061 145.267 180.577 146.104C181.078 146.96 181.815 147.7 182.787 148.325C183.76 148.951 184.996 149.416 186.496 149.723C187.998 150.045 189.835 150.094 192.006 149.869C194.047 149.657 195.784 149.221 197.217 148.56C198.65 147.9 199.834 147.142 200.768 146.286C201.686 145.432 202.377 144.543 202.842 143.62C203.308 142.698 203.584 141.86 203.671 141.109L179.551 143.612Z" fill="black"/>
<path d="M127.598 139.732C127.817 139.872 128.14 140.065 128.568 140.31C128.977 140.568 129.467 140.837 130.039 141.119C130.606 141.417 131.243 141.707 131.95 141.99C132.641 142.268 133.368 142.505 134.132 142.701C135.722 143.108 137.259 143.29 138.744 143.247C140.209 143.215 141.622 143.026 142.981 142.68C144.336 142.349 145.637 141.903 146.882 141.341C148.107 140.79 149.259 140.196 150.337 139.557L155.388 119.834L164.236 122.1L155.845 154.869L146.996 152.603L148.358 147.284C147.09 147.807 145.805 148.291 144.505 148.737C143.185 149.195 141.847 149.556 140.492 149.819C139.121 150.078 137.717 150.201 136.28 150.189C134.839 150.193 133.363 150.001 131.853 149.614C131.281 149.468 130.708 149.287 130.136 149.073C129.544 148.871 128.98 148.658 128.444 148.436C127.892 148.21 127.382 147.986 126.914 147.765C126.445 147.543 126.04 147.338 125.699 147.149L127.598 139.732Z" fill="black"/>
<path d="M108.27 96.4102L106.388 99.1501C107.711 99.282 109.067 99.5259 110.455 99.8818C111.83 100.228 113.21 100.668 114.596 101.202C115.981 101.735 117.357 102.371 118.722 103.109C120.082 103.824 121.405 104.623 122.69 105.505C124.192 106.536 125.549 107.677 126.761 108.927C127.96 110.168 128.882 111.478 129.528 112.858C130.174 114.237 130.475 115.668 130.432 117.152C130.375 118.626 129.836 120.107 128.814 121.595C127.523 123.476 125.936 124.686 124.053 125.225C122.161 125.777 119.885 125.728 117.226 125.077C114.567 124.426 111.479 123.211 107.962 121.433C104.431 119.646 100.376 117.36 95.7978 114.575L95.3937 115.163C95.0778 115.623 94.8884 116.16 94.8254 116.774C94.7531 117.401 94.9255 118.107 95.3427 118.891C95.7371 119.68 96.4215 120.568 97.3959 121.555C98.3568 122.533 99.7031 123.617 101.435 124.806C102.802 125.745 104.206 126.599 105.647 127.37C107.066 128.145 108.482 128.838 109.894 129.449C111.292 130.051 112.658 130.571 113.99 131.008C115.323 131.445 116.563 131.798 117.711 132.069L113.113 138.767C111.998 138.36 110.773 137.867 109.438 137.289C108.103 136.711 106.744 136.067 105.361 135.356C103.968 134.658 102.59 133.911 101.226 133.114C99.8526 132.33 98.5707 131.53 97.38 130.712C95.0392 129.105 93.0158 127.427 91.3098 125.678C89.5945 123.943 88.3051 122.182 87.4418 120.395C86.565 118.598 86.1548 116.804 86.2111 115.011C86.254 113.208 86.8653 111.448 88.0451 109.73L100.74 91.2404L108.27 96.4102ZM99.5324 109.136C102.502 111.015 105.072 112.551 107.24 113.741C109.396 114.922 111.236 115.838 112.762 116.487C114.287 117.136 115.542 117.569 116.527 117.788C117.498 117.997 118.285 118.069 118.887 118.004C119.488 117.94 119.948 117.778 120.266 117.518C120.57 117.249 120.815 116.979 121.001 116.709C121.224 116.384 121.354 116.005 121.392 115.573C121.42 115.155 121.297 114.682 121.022 114.155C120.733 113.618 120.27 113.031 119.633 112.395C118.995 111.758 118.121 111.058 117.012 110.296C115.78 109.451 114.511 108.719 113.204 108.1C111.897 107.481 110.604 106.972 109.326 106.572C108.038 106.186 106.781 105.9 105.554 105.715C104.305 105.534 103.138 105.45 102.055 105.462L99.5324 109.136Z" fill="black"/>
<path d="M64.9305 85.194L86.6418 70.06L91.8648 77.5529L70.1535 92.687L78.361 104.462L72.3223 108.671L50.67 77.6086L56.7088 73.3993L64.9305 85.194Z" fill="black"/>
<path d="M67.3047 19.3263C68.8697 21.7939 70.18 24.3253 71.2355 26.9204C72.303 29.4956 73.1874 32.1843 73.8888 34.9865C74.7853 38.5689 75.2022 41.8568 75.1393 44.8502C75.0564 47.8318 74.5217 50.4611 73.5351 52.7383C72.5485 55.0155 71.1219 56.9206 69.2554 58.4537C67.3889 59.9867 65.1182 61.088 62.4434 61.7574C59.9596 62.379 57.5334 62.4533 55.1648 61.9802C52.7763 61.4952 50.5707 60.5245 48.5482 59.0681C46.5057 57.5998 44.7179 55.6617 43.1847 53.2538C41.6356 50.8499 40.4566 48.0319 39.6477 44.7998C38.9025 41.8224 38.6271 38.9982 38.8215 36.3272C38.996 33.6441 39.6501 31.2217 40.7841 29.06C41.914 26.8822 43.5118 25.0189 45.5773 23.4699C47.6389 21.9049 50.1743 20.7459 53.1834 19.9928L55.3806 19.4429L63.4738 51.7796C64.4369 51.234 65.2667 50.5272 65.9631 49.6593C66.6555 48.7754 67.1628 47.6925 67.4849 46.4107C67.807 45.1288 67.93 43.6261 67.8539 41.9025C67.7738 40.1629 67.4469 38.1468 66.8731 35.8541C66.4666 34.2301 65.9726 32.6619 65.391 31.1494C64.7936 29.6408 64.1662 28.2498 63.5091 26.9761C62.836 25.7065 62.165 24.5801 61.496 23.5971C60.823 22.5981 60.2038 21.8141 59.6384 21.245L67.3047 19.3263ZM51.0902 29.8813C50.2981 30.1641 49.524 30.6201 48.7678 31.2492C47.9918 31.8664 47.363 32.7005 46.8817 33.7516C46.4003 34.8026 46.114 36.0924 46.0228 37.621C45.9158 39.1536 46.1272 40.9786 46.6572 43.0962C47.1553 45.0864 47.8324 46.7442 48.6886 48.0695C49.5448 49.3949 50.4626 50.4594 51.4421 51.2633C52.4176 52.0512 53.395 52.6102 54.3743 52.9404C55.3536 53.2705 56.2214 53.4255 56.9778 53.4054L51.0902 29.8813Z" fill="black"/>
</svg>
