<svg width="195" height="97" viewBox="0 0 195 97" fill="none" xmlns="http://www.w3.org/2000/svg">
<path fill-rule="evenodd" clip-rule="evenodd" d="M97.5 97C151.348 97 195 53.5716 195 0L0 0C0 53.5716 43.6522 97 97.5 97Z" fill="white"/>
<path d="M173.186 28.0538C172.751 29.7939 172.196 31.3714 171.521 32.7862C170.853 34.2118 170.13 35.491 169.352 36.6237L165.011 35.537C165.409 35.115 165.815 34.6262 166.229 34.0707C166.64 33.5237 167.036 32.9132 167.415 32.2392C167.794 31.5651 168.148 30.8297 168.475 30.0329C168.803 29.2361 169.081 28.3811 169.309 27.468C169.594 26.3309 169.76 25.3197 169.808 24.4345C169.855 23.5494 169.817 22.7708 169.692 22.0988C169.567 21.4268 169.368 20.8506 169.095 20.3702C168.83 19.892 168.519 19.4892 168.161 19.1617C167.804 18.8342 167.421 18.5735 167.012 18.3796C166.602 18.1856 166.195 18.038 165.791 17.9367C165.437 17.8483 165.045 17.7868 164.615 17.7522C164.182 17.7263 163.734 17.7606 163.271 17.8552C162.805 17.9585 162.338 18.1436 161.868 18.4105C161.399 18.6775 160.945 19.0629 160.508 19.5668C160.068 20.0792 159.656 20.722 159.27 21.4951C158.893 22.2704 158.563 23.2223 158.281 24.3508C158.139 24.9193 158.032 25.419 157.961 25.8497C157.889 26.2805 157.841 26.6757 157.815 27.0353C157.787 27.4036 157.778 27.7493 157.789 28.0724C157.797 28.404 157.808 28.7454 157.821 29.0965L159.966 29.6333L161.311 24.2579L165.201 25.2313L162.655 35.4007L153.584 33.1305C153.529 32.4391 153.509 31.6745 153.527 30.8367C153.551 30.0096 153.608 29.1589 153.699 28.2845C153.779 27.4166 153.89 26.5519 154.032 25.6904C154.175 24.8289 154.34 24.0235 154.527 23.274C154.818 22.111 155.175 21.0149 155.597 19.9855C156.02 18.9561 156.507 18.0161 157.058 17.1655C157.616 16.3257 158.241 15.5849 158.933 14.9433C159.622 14.3103 160.379 13.8086 161.204 13.4384C162.027 13.0768 162.92 12.8563 163.883 12.7768C164.852 12.7081 165.892 12.8129 167.003 13.091C168.106 13.367 169.066 13.7721 169.885 14.3065C170.703 14.8408 171.388 15.4699 171.939 16.1937C172.488 16.9261 172.915 17.7425 173.221 18.6429C173.524 19.5519 173.719 20.5114 173.805 21.5215C173.897 22.5425 173.888 23.6021 173.778 24.7005C173.666 25.8075 173.469 26.9253 173.186 28.0538Z" fill="black"/>
<path d="M139.262 51.8566C139.769 50.3591 140.389 48.9471 141.123 47.6207C141.844 46.2961 142.675 45.0099 143.617 43.7623C144.82 42.1672 146.063 40.8743 147.344 39.8833C148.627 38.9048 149.916 38.2363 151.21 37.8777C152.504 37.519 153.791 37.4721 155.071 37.7368C156.35 38.0016 157.586 38.5832 158.777 39.4817C159.883 40.3161 160.739 41.3122 161.344 42.4701C161.952 43.6405 162.293 44.8989 162.367 46.2454C162.443 47.6043 162.235 49.0156 161.742 50.4795C161.257 51.9487 160.471 53.4028 159.386 54.8418C158.386 56.1675 157.29 57.2433 156.1 58.0693C154.911 58.9078 153.669 59.4557 152.373 59.7131C151.072 59.9775 149.745 59.9382 148.391 59.5951C147.031 59.2591 145.682 58.5857 144.342 57.5749L143.364 56.8368L154.226 42.4392C153.669 42.2191 153.089 42.11 152.487 42.1119C151.88 42.1208 151.252 42.2753 150.603 42.5754C149.953 42.8754 149.279 43.3344 148.579 43.9522C147.874 44.5772 147.137 45.4 146.366 46.4209C145.821 47.1439 145.329 47.8849 144.889 48.6438C144.457 49.4081 144.085 50.1449 143.772 50.8545C143.467 51.5693 143.22 52.2347 143.034 52.8504C142.842 53.4733 142.723 54.0004 142.675 54.4318L139.262 51.8566ZM149.216 55.0952C149.604 55.3325 150.06 55.5034 150.581 55.6079C151.105 55.7249 151.67 55.7061 152.276 55.5515C152.882 55.3969 153.522 55.0791 154.197 54.5979C154.878 54.1221 155.575 53.4128 156.286 52.47C156.955 51.5838 157.422 50.7353 157.689 49.9244C157.956 49.1135 158.093 48.3653 158.098 47.6798C158.098 47.0013 158.001 46.3999 157.807 45.8754C157.614 45.3509 157.384 44.9329 157.118 44.6213L149.216 55.0952Z" fill="black"/>
<path d="M120.306 62.0462L125.349 70.9779C125.685 71.5734 126.038 72.0824 126.41 72.5051C126.785 72.9356 127.208 73.2423 127.679 73.4254C128.146 73.6206 128.679 73.6713 129.279 73.5775C129.875 73.4958 130.56 73.2367 131.333 72.8001C131.921 72.4684 132.494 72.0379 133.052 71.5088C133.606 70.9918 134.126 70.4229 134.612 69.802C135.098 69.1811 135.532 68.5329 135.916 67.8575C136.292 67.1865 136.597 66.5349 136.831 65.9028L131.187 55.9039L135.49 53.4745L144.488 69.4124L140.184 71.8418L138.953 69.6611C138.586 70.276 138.183 70.9067 137.742 71.5531C137.306 72.2073 136.813 72.8524 136.265 73.4884C135.716 74.1244 135.099 74.738 134.413 75.3292C133.727 75.9204 132.955 76.4583 132.096 76.9429C131.022 77.5497 129.988 77.9596 128.997 78.1725C128.002 78.3975 127.076 78.4362 126.217 78.2885C125.363 78.1486 124.59 77.8256 123.896 77.3198C123.199 76.826 122.615 76.1615 122.144 75.3263L116.015 64.4691L120.306 62.0462Z" fill="black"/>
<path d="M92.7342 67.6383C94.1756 66.9887 95.6317 66.4805 97.1024 66.1136C98.5634 65.7388 100.071 65.4707 101.626 65.3094C103.613 65.1031 105.406 65.1313 107.005 65.3939C108.595 65.6663 109.963 66.1538 111.107 66.8564C112.251 67.559 113.163 68.4689 113.841 69.5859C114.519 70.7029 114.936 72.0033 115.09 73.4872C115.233 74.8651 115.087 76.1704 114.652 77.4029C114.21 78.6451 113.521 79.7522 112.586 80.7242C111.644 81.7059 110.469 82.5152 109.062 83.1523C107.656 83.7982 106.056 84.2142 104.263 84.4003C102.612 84.5717 101.078 84.5032 99.6619 84.1948C98.2381 83.8962 96.9907 83.3605 95.9195 82.5878C94.8395 81.8161 93.9636 80.8177 93.2919 79.5929C92.6113 78.369 92.1844 76.9223 92.0112 75.2529L91.8847 74.034L109.824 72.1722C109.605 71.6146 109.29 71.1161 108.879 70.6767C108.458 70.2382 107.917 69.8837 107.255 69.6132C106.593 69.3426 105.798 69.1618 104.869 69.0707C103.931 68.9806 102.826 69.0015 101.554 69.1335C100.653 69.227 99.7752 69.3717 98.9206 69.5675C98.0669 69.7722 97.2738 70.0018 96.5413 70.2563C95.8098 70.5198 95.1552 70.793 94.5775 71.0762C93.9909 71.3603 93.5236 71.632 93.1756 71.8913L92.7342 67.6383ZM97.1476 77.1304C97.2385 77.5763 97.4236 78.0258 97.7027 78.4789C97.974 78.9418 98.3726 79.3424 98.8988 79.6806C99.4249 80.0188 100.094 80.2708 100.906 80.4365C101.718 80.6111 102.712 80.6374 103.887 80.5155C104.991 80.4009 105.931 80.165 106.706 79.8078C107.481 79.4505 108.122 79.0404 108.627 78.5772C109.124 78.115 109.498 77.6342 109.75 77.1349C110.002 76.6356 110.151 76.1826 110.198 75.776L97.1476 77.1304Z" fill="black"/>
<path d="M69.0379 75.0307C69.1559 75.1068 69.3308 75.2112 69.5627 75.3439C69.7837 75.483 70.0489 75.6288 70.3582 75.7813C70.6652 75.9425 71.01 76.0995 71.3925 76.2525C71.7664 76.4032 72.1598 76.5315 72.5728 76.6372C73.433 76.8575 74.2649 76.956 75.0684 76.9326C75.8611 76.9156 76.6252 76.8133 77.3607 76.6258C78.0941 76.447 78.7976 76.2054 79.4713 75.9013C80.1342 75.6036 80.7574 75.2819 81.3409 74.9363L84.0737 64.2648L88.8611 65.4907L84.3207 83.2207L79.5334 81.9948L80.2703 79.1172C79.5838 79.3997 78.8887 79.6617 78.1852 79.9032C77.4709 80.1512 76.7472 80.3462 76.0141 80.4885C75.2724 80.6286 74.5128 80.6953 73.7353 80.6887C72.9556 80.6907 72.1571 80.5871 71.3399 80.3778C71.0302 80.2985 70.7206 80.2009 70.4111 80.0849C70.0908 79.9754 69.7856 79.8606 69.4956 79.7405C69.1969 79.6182 68.9208 79.4971 68.6673 79.3771C68.4139 79.2572 68.1948 79.1461 68.0102 79.0439L69.0379 75.0307Z" fill="black"/>
<path d="M58.5801 51.5921L57.5622 53.0745C58.278 53.1459 59.0115 53.2778 59.7626 53.4704C60.5064 53.6579 61.2531 53.8959 62.0029 54.1845C62.7527 54.4731 63.4968 54.817 64.2352 55.2163C64.9713 55.6032 65.6871 56.0354 66.3826 56.513C67.1952 57.0709 67.9294 57.6881 68.5852 58.3646C69.2337 59.036 69.7326 59.7448 70.0821 60.491C70.4315 61.2372 70.5946 62.0116 70.5713 62.8143C70.5407 63.612 70.2489 64.4134 69.696 65.2187C68.9973 66.2363 68.1386 66.8908 67.1198 67.1823C66.096 67.4812 64.8647 67.4545 63.4261 67.1023C61.9876 66.7501 60.3167 66.093 58.4135 65.131C56.503 64.1639 54.3092 62.927 51.8322 61.4202L51.6135 61.7386C51.4426 61.9875 51.3401 62.278 51.306 62.6101C51.2669 62.9495 51.3602 63.3313 51.5859 63.7556C51.7993 64.1822 52.1696 64.6626 52.6968 65.1969C53.2167 65.7262 53.9452 66.3126 54.8822 66.9559C55.6216 67.4636 56.3813 67.926 57.1614 68.3431C57.9291 68.7624 58.6949 69.1375 59.4589 69.4681C60.2156 69.7937 60.9544 70.0748 61.6753 70.3113C62.3963 70.5477 63.0673 70.7392 63.6885 70.8856L61.2004 74.5094C60.5975 74.2893 59.9349 74.0228 59.2125 73.71C58.4901 73.3972 57.7547 73.0484 57.0063 72.6638C56.2528 72.2865 55.507 71.8822 54.7691 71.4509C54.0261 71.0269 53.3324 70.5938 52.6882 70.1515C51.4217 69.2819 50.3269 68.374 49.4039 67.4279C48.4758 66.489 47.7782 65.5361 47.3111 64.5691C46.8367 63.5971 46.6147 62.626 46.6452 61.6559C46.6684 60.6808 46.9992 59.7284 47.6375 58.7987L54.5061 48.7949L58.5801 51.5921ZM53.8528 58.4772C55.4596 59.4943 56.8498 60.3249 58.0233 60.9691C59.1895 61.6082 60.1852 62.1034 61.0105 62.4546C61.8358 62.8057 62.5149 63.0404 63.0478 63.1585C63.5733 63.2716 63.9989 63.3107 64.3246 63.2757C64.6502 63.2408 64.8989 63.1531 65.0708 63.0125C65.2353 62.867 65.3679 62.721 65.4684 62.5746C65.5891 62.3989 65.6596 62.1942 65.68 61.9605C65.6954 61.7341 65.6287 61.4782 65.4799 61.1929C65.3238 60.9026 65.0732 60.5851 64.7281 60.2405C64.3831 59.8959 63.9104 59.5175 63.3101 59.1053C62.6439 58.6479 61.9572 58.2518 61.2499 57.917C60.5426 57.5822 59.8431 57.3066 59.1515 57.0902C58.4548 56.8812 57.7746 56.7266 57.111 56.6264C56.4349 56.5285 55.8037 56.4829 55.2174 56.4896L53.8528 58.4772Z" fill="black"/>
<path d="M35.1305 45.5232L46.8776 37.3348L49.7035 41.3889L37.9564 49.5773L42.3972 55.9481L39.1299 58.2256L27.4148 41.4191L30.6821 39.1416L35.1305 45.5232Z" fill="black"/>
<path d="M36.4159 9.88527C37.2627 11.2204 37.9716 12.59 38.5427 13.9941C39.1203 15.3874 39.5988 16.8422 39.9783 18.3583C40.4634 20.2966 40.6889 22.0756 40.6549 23.6952C40.6101 25.3084 40.3207 26.731 39.7869 27.9631C39.2531 29.1952 38.4813 30.226 37.4714 31.0555C36.4615 31.8849 35.2329 32.4808 33.7857 32.843C32.4418 33.1793 31.1291 33.2195 29.8475 32.9635C28.5552 32.7011 27.3619 32.1759 26.2675 31.3879C25.1625 30.5934 24.1951 29.5448 23.3656 28.242C22.5274 26.9413 21.8895 25.4166 21.4519 23.6679C21.0487 22.057 20.8997 20.5289 21.0048 19.0837C21.0992 17.6321 21.4532 16.3214 22.0667 15.1517C22.6781 13.9735 23.5425 12.9653 24.6601 12.1272C25.7756 11.2805 27.1473 10.6534 28.7755 10.2459L29.9643 9.94834L34.3431 27.4444C34.8643 27.1492 35.3132 26.7668 35.69 26.2972C36.0647 25.8189 36.3391 25.233 36.5134 24.5395C36.6877 23.8459 36.7542 23.0329 36.7131 22.1003C36.6697 21.1591 36.4928 20.0683 36.1824 18.8278C35.9625 17.9491 35.6952 17.1006 35.3805 16.2822C35.0572 15.466 34.7178 14.7134 34.3623 14.0243C33.9981 13.3373 33.635 12.7279 33.2731 12.196C32.9089 11.6555 32.5739 11.2313 32.268 10.9234L36.4159 9.88527ZM27.6429 15.5961C27.2144 15.7492 26.7955 15.9959 26.3864 16.3363C25.9665 16.6702 25.6263 17.1215 25.3659 17.6902C25.1054 18.2588 24.9505 18.9567 24.9012 19.7838C24.8433 20.613 24.9577 21.6004 25.2444 22.7462C25.5139 23.823 25.8803 24.7199 26.3435 25.437C26.8068 26.1541 27.3034 26.7301 27.8333 27.165C28.3611 27.5913 28.8899 27.8938 29.4198 28.0724C29.9497 28.2511 30.4192 28.3349 30.8284 28.3241L27.6429 15.5961Z" fill="black"/>
</svg>
