<svg width="344" height="206" viewBox="0 0 344 206" fill="none" xmlns="http://www.w3.org/2000/svg">
<path d="M328 67C336.554 103.687 271.719 149.799 186.066 169.771C100.413 189.743 24.0428 176.193 15.4887 139.506C6.93452 102.819 69.4355 56.8889 155.089 36.9173C240.742 16.9457 319.446 30.3134 328 67Z" fill="#0FE5F2"/>
<path fill-rule="evenodd" clip-rule="evenodd" d="M306.217 90.0832C311.368 82.652 312.929 76.1127 311.626 70.5262C310.324 64.9397 306.031 59.7654 298.125 55.3784C290.184 50.9716 279.028 47.6295 265.171 45.7251C237.486 41.9203 200.44 44.0493 160.739 53.3062C121.038 62.5632 86.8713 77.0389 63.7235 92.6965C52.1379 100.533 43.611 108.465 38.4375 115.93C33.2874 123.361 31.7259 129.9 33.0285 135.487C34.3311 141.073 38.6238 146.247 46.5296 150.634C54.4712 155.041 65.6267 158.383 79.4836 160.288C107.169 164.092 144.215 161.963 183.916 152.706C223.617 143.45 257.784 128.974 280.931 113.316C292.517 105.479 301.044 97.5481 306.217 90.0832ZM185.395 159.051C266.24 140.201 325.927 99.8274 318.709 68.8746C311.492 37.9219 240.104 28.1111 159.26 46.9615C78.415 65.812 18.7283 106.185 25.9455 137.138C33.1627 168.091 104.551 177.902 185.395 159.051Z" fill="black"/>
<path d="M234.467 80.7171L239.644 102.919L231.981 104.706L226.804 82.5038L214.764 85.3113L213.324 79.136L245.088 71.7294L246.528 77.9048L234.467 80.7171Z" fill="black"/>
<path d="M207.528 110.408L206.878 107.62C206.025 108.385 205.083 109.105 204.05 109.782C203.031 110.455 201.949 111.077 200.805 111.649C199.661 112.22 198.458 112.726 197.196 113.166C195.95 113.616 194.674 113.993 193.366 114.298C191.837 114.654 190.323 114.855 188.824 114.9C187.338 114.941 185.969 114.767 184.717 114.377C183.465 113.986 182.379 113.347 181.46 112.457C180.556 111.565 179.927 110.362 179.573 108.847C179.127 106.933 179.28 105.221 180.031 103.71C180.778 102.186 182.132 100.767 184.09 99.4536C186.049 98.1404 188.615 96.8815 191.789 95.6768C194.977 94.4689 198.787 93.2177 203.218 91.9232L203.078 91.3243C202.969 90.8562 202.737 90.4238 202.384 90.0272C202.027 89.6169 201.478 89.3166 200.736 89.1265C200.006 88.9194 199.043 88.8389 197.849 88.8851C196.669 88.9281 195.197 89.155 193.435 89.5659C192.044 89.8902 190.685 90.287 189.357 90.7563C188.04 91.2086 186.777 91.7064 185.568 92.2496C184.373 92.7895 183.249 93.3564 182.197 93.9501C181.145 94.5438 180.2 95.1272 179.361 95.7003L177.771 88.8847C178.677 88.4122 179.702 87.9192 180.845 87.4058C181.989 86.8924 183.188 86.4022 184.444 85.9352C185.697 85.4544 186.973 85.0117 188.272 84.6072C189.568 84.1888 190.822 83.8384 192.034 83.5558C194.416 83.0004 196.658 82.688 198.762 82.6186C200.862 82.5354 202.731 82.7383 204.369 83.2273C206.022 83.7131 207.401 84.4947 208.509 85.572C209.631 86.6461 210.395 88.0575 210.803 89.8062L215.19 108.621L207.528 110.408ZM204.508 97.4583C201.587 98.2555 199.118 98.9982 197.101 99.6863C195.098 100.371 193.447 101.01 192.148 101.603C190.849 102.197 189.844 102.743 189.133 103.243C188.436 103.739 187.933 104.198 187.624 104.618C187.316 105.038 187.152 105.425 187.133 105.778C187.127 106.128 187.156 106.44 187.221 106.716C187.298 107.046 187.463 107.349 187.715 107.624C187.965 107.885 188.338 108.081 188.833 108.212C189.342 108.341 189.984 108.387 190.76 108.351C191.535 108.315 192.488 108.166 193.617 107.903C194.87 107.611 196.073 107.228 197.225 106.756C198.378 106.284 199.453 105.758 200.45 105.177C201.444 104.582 202.356 103.949 203.186 103.276C204.027 102.586 204.758 101.893 205.38 101.197L204.508 97.4583Z" fill="black"/>
<path d="M173.845 116.781C171.698 118.095 169.5 119.188 167.25 120.061C165.017 120.944 162.689 121.669 160.265 122.234C157.167 122.956 154.33 123.269 151.752 123.174C149.185 123.061 146.928 122.564 144.98 121.682C143.033 120.801 141.412 119.545 140.117 117.916C138.823 116.287 137.906 114.316 137.367 112.003C136.866 109.855 136.836 107.764 137.276 105.731C137.727 103.68 138.594 101.794 139.876 100.072C141.17 98.3338 142.864 96.8209 144.959 95.5339C147.051 94.2331 149.495 93.2568 152.29 92.6051C154.865 92.0047 157.301 91.8068 159.599 92.0114C161.907 92.199 163.985 92.7962 165.831 93.803C167.691 94.8065 169.273 96.2086 170.579 98.0093C171.898 99.8067 172.861 102.007 173.468 104.609L173.911 106.509L145.946 113.029C146.403 113.867 147 114.591 147.738 115.203C148.49 115.812 149.415 116.264 150.515 116.559C151.614 116.854 152.907 116.981 154.393 116.94C155.892 116.895 157.633 116.641 159.616 116.179C161.02 115.852 162.378 115.448 163.689 114.968C164.996 114.474 166.203 113.954 167.309 113.405C168.412 112.843 169.392 112.281 170.248 111.718C171.117 111.153 171.801 110.63 172.299 110.151L173.845 116.781ZM164.98 102.668C164.747 101.982 164.365 101.309 163.834 100.649C163.313 99.972 162.603 99.4188 161.705 98.9896C160.806 98.5603 159.699 98.2958 158.384 98.196C157.066 98.0824 155.491 98.2391 153.659 98.6661C151.938 99.0674 150.501 99.6276 149.348 100.347C148.194 101.066 147.264 101.841 146.558 102.674C145.866 103.503 145.371 104.337 145.073 105.176C144.775 106.015 144.63 106.76 144.636 107.412L164.98 102.668Z" fill="black"/>
<path d="M289.999 90.2404C287.852 91.554 285.653 92.6473 283.403 93.5203C281.17 94.4039 278.842 95.1282 276.419 95.6933C273.321 96.4156 270.483 96.7289 267.906 96.633C265.339 96.5202 263.082 96.023 261.134 95.1415C259.186 94.2601 257.565 93.0048 256.271 91.3758C254.977 89.7468 254.06 87.7757 253.52 85.4626C253.019 83.3146 252.989 81.2239 253.43 79.1904C253.881 77.1399 254.748 75.2537 256.03 73.532C257.323 71.7932 259.017 70.2803 261.113 68.9933C263.205 67.6925 265.648 66.7163 268.443 66.0646C271.018 65.4642 273.455 65.2663 275.752 65.4709C278.061 65.6585 280.138 66.2557 281.984 67.2625C283.844 68.266 285.427 69.6681 286.732 71.4687C288.052 73.2662 289.015 75.4661 289.621 78.0684L290.064 79.9685L262.1 86.489C262.556 87.3261 263.154 88.0507 263.892 88.6626C264.643 89.2713 265.569 89.7232 266.668 90.0185C267.768 90.3138 269.061 90.4406 270.546 90.3991C272.046 90.3544 273.787 90.1008 275.769 89.6385C277.174 89.3111 278.531 88.9074 279.842 88.4276C281.15 87.9339 282.357 87.413 283.463 86.8647C284.566 86.3027 285.545 85.7404 286.401 85.1779C287.271 84.6121 287.955 84.0897 288.453 83.6107L289.999 90.2404ZM281.134 76.1278C280.901 75.4416 280.519 74.7685 279.988 74.1085C279.467 73.4314 278.757 72.8783 277.859 72.449C276.96 72.0198 275.853 71.7553 274.538 71.6555C273.219 71.5419 271.644 71.6986 269.813 72.1256C268.092 72.5269 266.655 73.0871 265.501 73.8061C264.348 74.525 263.418 75.3008 262.712 76.1332C262.02 76.9624 261.525 77.7964 261.227 78.6353C260.929 79.4742 260.783 80.2195 260.79 80.8713L281.134 76.1278Z" fill="black"/>
<path d="M132.538 104.745C132.316 104.724 131.992 104.705 131.567 104.688C131.153 104.654 130.671 104.643 130.122 104.655C129.57 104.653 128.968 104.685 128.315 104.75C127.676 104.812 127.026 104.92 126.365 105.074C124.989 105.395 123.741 105.867 122.624 106.491C121.517 107.097 120.512 107.803 119.611 108.608C118.707 109.4 117.891 110.258 117.163 111.183C116.446 112.09 115.802 113.003 115.232 113.92L119.214 131L111.552 132.787L104.935 104.409L112.597 102.622L113.671 107.228C114.433 106.324 115.222 105.444 116.039 104.585C116.865 103.71 117.744 102.903 118.675 102.163C119.619 101.42 120.643 100.768 121.746 100.206C122.846 99.6302 124.05 99.1898 125.358 98.8848C125.854 98.7692 126.362 98.6796 126.885 98.6158C127.418 98.5351 127.933 98.473 128.431 98.4295C128.943 98.3828 129.422 98.351 129.868 98.3341C130.314 98.3171 130.705 98.3131 131.041 98.3218L132.538 104.745Z" fill="black"/>
<path d="M103.953 132.511C103.058 133.155 102.147 133.76 101.218 134.325C100.29 134.89 99.3166 135.414 98.2972 135.899C97.281 136.397 96.1884 136.848 95.0194 137.251C93.8642 137.651 92.605 138.01 91.2419 138.328C88.3505 139.002 85.6139 139.313 83.0324 139.262C80.4646 139.208 78.155 138.766 76.1037 137.938C74.0629 137.093 72.337 135.855 70.926 134.224C69.5117 132.579 68.5141 130.511 67.933 128.019C67.3519 125.526 67.3334 123.237 67.8776 121.15C68.4186 119.05 69.4189 117.176 70.8786 115.529C72.3489 113.865 74.2234 112.441 76.5023 111.256C78.7949 110.068 81.3869 109.137 84.2784 108.463C85.6415 108.145 86.9296 107.91 88.1426 107.758C89.3694 107.603 90.5487 107.524 91.6804 107.521C92.809 107.505 93.9143 107.545 94.9965 107.641C96.0787 107.737 97.1636 107.876 98.2513 108.058L99.8598 114.956C98.9754 114.712 98.0514 114.485 97.0876 114.274C96.1206 114.049 95.0754 113.894 93.9519 113.807C92.8252 113.707 91.6113 113.7 90.3102 113.786C89.0059 113.857 87.5689 114.076 85.9992 114.442C83.5897 115.004 81.6441 115.719 80.1625 116.587C78.6946 117.452 77.582 118.408 76.8246 119.456C76.0671 120.504 75.6209 121.609 75.4858 122.773C75.3474 123.923 75.4115 125.07 75.678 126.213C75.8546 126.97 76.1121 127.701 76.4507 128.406C76.7861 129.097 77.2236 129.728 77.7633 130.299C78.2997 130.857 78.9419 131.338 79.6899 131.745C80.4379 132.151 81.3197 132.446 82.3354 132.63C83.351 132.815 84.4988 132.881 85.7788 132.829C87.0694 132.761 88.5201 132.538 90.1311 132.163C91.7007 131.797 93.0896 131.371 94.2976 130.886C95.5024 130.388 96.5895 129.851 97.5589 129.277C98.5283 128.702 99.3985 128.107 100.17 127.492C100.938 126.863 101.663 126.237 102.345 125.613L103.953 132.511Z" fill="black"/>
</svg>
