<svg width="577" height="128" viewBox="0 0 577 128" fill="none" xmlns="http://www.w3.org/2000/svg">
<path d="M511.863 124H475.477L538.494 29.5176H456.404V3.23828H576.99V25.5625L511.863 124Z" fill="black"/>
<path d="M442.342 63.707C442.342 73.3164 440.496 82.0469 436.805 89.8984C433.172 97.6914 428.162 104.371 421.775 109.938C415.389 115.445 407.859 119.723 399.188 122.77C390.516 125.758 381.199 127.252 371.238 127.252C364.559 127.252 358.172 126.578 352.078 125.23C345.984 123.883 340.271 121.92 334.939 119.342C329.666 116.764 324.861 113.629 320.525 109.938C316.248 106.188 312.586 101.969 309.539 97.2812C306.492 92.5938 304.119 87.4375 302.42 81.8125C300.779 76.1875 299.959 70.1523 299.959 63.707C299.959 57.3203 300.779 51.3145 302.42 45.6895C304.119 40.0059 306.492 34.8203 309.539 30.1328C312.586 25.4453 316.248 21.2559 320.525 17.5645C324.861 13.8145 329.666 10.6504 334.939 8.07227C340.271 5.49414 345.984 3.53125 352.078 2.18359C358.172 0.835938 364.559 0.162109 371.238 0.162109C381.199 0.162109 390.516 1.68555 399.188 4.73242C407.859 7.7207 415.389 11.998 421.775 17.5645C428.162 23.0723 433.172 29.752 436.805 37.6035C440.496 45.3965 442.342 54.0977 442.342 63.707ZM409.734 63.707C409.734 57.6133 408.68 52.2227 406.57 47.5352C404.461 42.8477 401.619 38.8926 398.045 35.6699C394.529 32.4473 390.457 30.0156 385.828 28.375C381.199 26.7344 376.336 25.9141 371.238 25.9141C366.141 25.9141 361.248 26.7344 356.561 28.375C351.873 30.0156 347.742 32.4473 344.168 35.6699C340.652 38.8926 337.811 42.8477 335.643 47.5352C333.533 52.2227 332.479 57.6133 332.479 63.707C332.479 69.8008 333.533 75.1914 335.643 79.8789C337.811 84.5664 340.652 88.5215 344.168 91.7441C347.742 94.9082 351.873 97.3398 356.561 99.0391C361.248 100.68 366.141 101.5 371.238 101.5C376.336 101.5 381.199 100.68 385.828 99.0391C390.457 97.3398 394.529 94.9082 398.045 91.7441C401.619 88.5215 404.461 84.5664 406.57 79.8789C408.68 75.1914 409.734 69.8008 409.734 63.707Z" fill="black"/>
<path d="M279.041 63.707C279.041 73.3164 277.195 82.0469 273.504 89.8984C269.871 97.6914 264.861 104.371 258.475 109.938C252.088 115.445 244.559 119.723 235.887 122.77C227.215 125.758 217.898 127.252 207.938 127.252C201.258 127.252 194.871 126.578 188.777 125.23C182.684 123.883 176.971 121.92 171.639 119.342C166.365 116.764 161.561 113.629 157.225 109.938C152.947 106.188 149.285 101.969 146.238 97.2812C143.191 92.5938 140.818 87.4375 139.119 81.8125C137.479 76.1875 136.658 70.1523 136.658 63.707C136.658 57.3203 137.479 51.3145 139.119 45.6895C140.818 40.0059 143.191 34.8203 146.238 30.1328C149.285 25.4453 152.947 21.2559 157.225 17.5645C161.561 13.8145 166.365 10.6504 171.639 8.07227C176.971 5.49414 182.684 3.53125 188.777 2.18359C194.871 0.835938 201.258 0.162109 207.938 0.162109C217.898 0.162109 227.215 1.68555 235.887 4.73242C244.559 7.7207 252.088 11.998 258.475 17.5645C264.861 23.0723 269.871 29.752 273.504 37.6035C277.195 45.3965 279.041 54.0977 279.041 63.707ZM246.434 63.707C246.434 57.6133 245.379 52.2227 243.27 47.5352C241.16 42.8477 238.318 38.8926 234.744 35.6699C231.229 32.4473 227.156 30.0156 222.527 28.375C217.898 26.7344 213.035 25.9141 207.938 25.9141C202.84 25.9141 197.947 26.7344 193.26 28.375C188.572 30.0156 184.441 32.4473 180.867 35.6699C177.352 38.8926 174.51 42.8477 172.342 47.5352C170.232 52.2227 169.178 57.6133 169.178 63.707C169.178 69.8008 170.232 75.1914 172.342 79.8789C174.51 84.5664 177.352 88.5215 180.867 91.7441C184.441 94.9082 188.572 97.3398 193.26 99.0391C197.947 100.68 202.84 101.5 207.938 101.5C213.035 101.5 217.898 100.68 222.527 99.0391C227.156 97.3398 231.229 94.9082 234.744 91.7441C238.318 88.5215 241.16 84.5664 243.27 79.8789C245.379 75.1914 246.434 69.8008 246.434 63.707Z" fill="black"/>
<path d="M55.5352 124H19.1484L82.166 29.5176H0.0761719V3.23828H120.662V25.5625L55.5352 124Z" fill="black"/>
</svg>
