<svg width="377" height="36" viewBox="0 0 377 36" fill="none" xmlns="http://www.w3.org/2000/svg">
<rect width="36" height="36" fill="white"/>
<rect x="161" width="36" height="36" fill="white"/>
<rect x="46" width="11.381" height="36" fill="white"/>
<rect x="69" width="11.381" height="36" fill="white"/>
<rect x="92" width="11.381" height="36" fill="white"/>
<rect x="115" width="11.381" height="36" fill="white"/>
<rect x="138" width="11.381" height="36" fill="white"/>
<rect x="317" width="36" height="36" fill="white"/>
<rect x="365" width="11.381" height="36" fill="white"/>
<rect x="247" width="36" height="36" fill="black"/>
<rect width="17.5135" height="17.5135" transform="matrix(-1 0 0 1 233 0)" fill="black"/>
<rect width="18.4865" height="18.4865" transform="matrix(-1 0 0 1 215.486 17.5137)" fill="black"/>
<rect width="17.5135" height="17.5135" transform="matrix(1.19249e-08 -1 -1 -1.19249e-08 317 36)" fill="black"/>
<rect width="18.4865" height="18.4865" transform="matrix(1.19249e-08 -1 -1 -1.19249e-08 299.486 18.4863)" fill="black"/>
<rect width="18.4865" height="18.4865" transform="matrix(1.19249e-08 -1 -1 -1.19249e-08 299.486 18.4863)" fill="black"/>
</svg>
